<mxfile host="65bd71144e">
    <diagram id="oYYGXfTJXQkxt8KzoTkO" name="Page-1">
        <mxGraphModel dx="1112" dy="662" grid="1" gridSize="10" guides="1" tooltips="1" connect="1" arrows="1" fold="1" page="1" pageScale="1" pageWidth="850" pageHeight="1100" math="0" shadow="0">
            <root>
                <mxCell id="0"/>
                <mxCell id="1" parent="0"/>
                <mxCell id="2Yao9YdW4WMygOOBhZm5-30" value="&lt;span style=&quot;color: rgb(181, 137, 0); font-size: 17px; background-color: rgb(26, 21, 31);&quot;&gt;TAF Metadata Process - IP, LT, OT, RX&lt;/span&gt;" style="swimlane;labelBackgroundColor=#1E1A22;fontFamily=Tahoma;fontSize=12;html=1;startSize=60;movable=1;resizable=1;rotatable=1;deletable=1;editable=1;connectable=1;fillColor=#1E1A22;swimlaneFillColor=#1A151F;perimeterSpacing=1;flipV=0;flipH=0;strokeColor=default;" parent="1" vertex="1">
                    <mxGeometry x="40" y="30" width="1110" height="630" as="geometry"/>
                </mxCell>
                <mxCell id="2Yao9YdW4WMygOOBhZm5-32" value="&lt;div style=&quot;color: rgb(131, 148, 150); line-height: 181%; font-size: 10px;&quot;&gt;&lt;div style=&quot;line-height: 181%;&quot;&gt;&lt;font style=&quot;font-size: 10px;&quot; face=&quot;Tahoma&quot;&gt;&lt;span style=&quot;color: rgb(38, 139, 210);&quot;&gt;self&lt;/span&gt;.&lt;span style=&quot;color: rgb(38, 139, 210);&quot;&gt;__create_formated_lkup&lt;/span&gt;&lt;/font&gt;&lt;/div&gt;&lt;div style=&quot;&quot;&gt;&lt;font style=&quot;font-size: 10px;&quot; face=&quot;Tahoma&quot;&gt;(filetyp, fl, fl2, rpt_out, clm_tbl, bsf_file_date)&lt;/font&gt;&lt;/div&gt;&lt;/div&gt;" style="shape=process;whiteSpace=wrap;html=1;backgroundOutline=1;labelBackgroundColor=#1e1a22;fontFamily=Helvetica;fontSize=12;align=left;spacingTop=1;perimeterSpacing=1;glass=0;strokeWidth=1;" parent="2Yao9YdW4WMygOOBhZm5-30" vertex="1">
                    <mxGeometry x="9" y="447" width="160" height="70" as="geometry"/>
                </mxCell>
                <mxCell id="2Yao9YdW4WMygOOBhZm5-34" value="&lt;font color=&quot;#ffffff&quot;&gt;Jupyter Notebook&lt;/font&gt;" style="swimlane;whiteSpace=wrap;html=1;fillColor=#1E1A22;glass=0;rounded=0;shadow=0;swimlaneFillColor=#1A151F;" parent="2Yao9YdW4WMygOOBhZm5-30" vertex="1">
                    <mxGeometry x="9" y="227" width="310" height="190" as="geometry"/>
                </mxCell>
                <UserObject label="&lt;font face=&quot;Verdana&quot;&gt;&lt;font style=&quot;font-size: 11px;&quot;&gt;runner.&lt;span style=&quot;color: rgb(38, 139, 210);&quot;&gt;prep_meta_table&lt;br&gt;&lt;/span&gt;&lt;/font&gt;&lt;/font&gt;&lt;blockquote style=&quot;background-image: ; background-position-x: ; background-position-y: ; background-size: ; background-repeat-x: ; background-repeat-y: ; background-attachment: ; background-origin: ; background-clip: ; border: none; margin: 0px 0px 0px 40px; padding: 0px;&quot;&gt;&lt;font style=&quot;background-color: rgb(30, 26, 34);&quot; face=&quot;Verdana&quot;&gt;&lt;font style=&quot;font-size: 11px;&quot;&gt;&lt;span style=&quot;color: rgb(131, 148, 150);&quot;&gt;(self,&lt;br&gt;&lt;/span&gt;&lt;/font&gt;&lt;/font&gt;&lt;font style=&quot;background-color: rgb(30, 26, 34);&quot; face=&quot;Verdana&quot;&gt;&lt;font style=&quot;font-size: 11px;&quot;&gt;&lt;span style=&quot;color: rgb(131, 148, 150);&quot;&gt;&amp;nbsp;p&lt;/span&gt;&lt;/font&gt;&lt;span style=&quot;font-size: 11px; color: rgb(131, 148, 150);&quot;&gt;gm_name:&amp;nbsp;&lt;/span&gt;&lt;span style=&quot;font-size: 11px; color: rgb(203, 75, 22);&quot;&gt;str&lt;/span&gt;&lt;span style=&quot;font-size: 11px; color: rgb(131, 148, 150);&quot;&gt;,&lt;br&gt;&lt;/span&gt;&lt;/font&gt;&lt;font style=&quot;background-color: rgb(30, 26, 34);&quot; face=&quot;Verdana&quot;&gt;&lt;span style=&quot;font-size: 11px; color: rgb(131, 148, 150);&quot;&gt;&amp;nbsp;step_name:&amp;nbsp;&lt;/span&gt;&lt;span style=&quot;font-size: 11px; color: rgb(203, 75, 22);&quot;&gt;str&lt;/span&gt;&lt;span style=&quot;font-size: 11px; color: rgb(131, 148, 150);&quot;&gt;,&lt;br&gt;&lt;/span&gt;&lt;/font&gt;&lt;font style=&quot;background-color: rgb(30, 26, 34);&quot; face=&quot;Verdana&quot;&gt;&lt;span style=&quot;font-size: 11px; color: rgb(131, 148, 150);&quot;&gt;&amp;nbsp;filetyp:&amp;nbsp;&lt;/span&gt;&lt;span style=&quot;font-size: 11px; color: rgb(203, 75, 22);&quot;&gt;str&lt;/span&gt;&lt;span style=&quot;font-size: 11px; color: rgb(131, 148, 150);&quot;&gt;&amp;nbsp;&lt;/span&gt;&lt;span style=&quot;font-size: 11px; color: rgb(133, 153, 0);&quot;&gt;=&lt;/span&gt;&lt;span style=&quot;font-size: 11px; color: rgb(131, 148, 150);&quot;&gt;&amp;nbsp;&lt;/span&gt;&lt;span style=&quot;font-size: 11px; color: rgb(181, 137, 0);&quot;&gt;None&lt;/span&gt;&lt;span style=&quot;font-size: 11px; color: rgb(131, 148, 150);&quot;&gt;,&lt;br&gt;&lt;/span&gt;&lt;/font&gt;&lt;font style=&quot;background-color: rgb(30, 26, 34);&quot; face=&quot;Verdana&quot;&gt;&lt;span style=&quot;font-size: 11px; color: rgb(131, 148, 150);&quot;&gt;&amp;nbsp;fl:&amp;nbsp;&lt;/span&gt;&lt;span style=&quot;font-size: 11px; color: rgb(203, 75, 22);&quot;&gt;str&lt;/span&gt;&lt;span style=&quot;font-size: 11px; color: rgb(131, 148, 150);&quot;&gt;&amp;nbsp;&lt;/span&gt;&lt;span style=&quot;font-size: 11px; color: rgb(133, 153, 0);&quot;&gt;=&lt;/span&gt;&lt;span style=&quot;font-size: 11px; color: rgb(131, 148, 150);&quot;&gt;&amp;nbsp;&lt;/span&gt;&lt;span style=&quot;font-size: 11px; color: rgb(181, 137, 0);&quot;&gt;None&lt;/span&gt;&lt;span style=&quot;font-size: 11px; color: rgb(131, 148, 150);&quot;&gt;,&lt;br&gt;&lt;/span&gt;&lt;/font&gt;&lt;font style=&quot;background-color: rgb(30, 26, 34);&quot; face=&quot;Verdana&quot;&gt;&lt;span style=&quot;font-size: 11px; color: rgb(131, 148, 150);&quot;&gt;&amp;nbsp;fl2:&amp;nbsp;&lt;/span&gt;&lt;span style=&quot;font-size: 11px; color: rgb(203, 75, 22);&quot;&gt;str&lt;/span&gt;&lt;span style=&quot;font-size: 11px; color: rgb(131, 148, 150);&quot;&gt;&amp;nbsp;&lt;/span&gt;&lt;span style=&quot;font-size: 11px; color: rgb(133, 153, 0);&quot;&gt;=&lt;/span&gt;&lt;span style=&quot;font-size: 11px; color: rgb(131, 148, 150);&quot;&gt;&amp;nbsp;&lt;/span&gt;&lt;span style=&quot;font-size: 11px; color: rgb(181, 137, 0);&quot;&gt;None&lt;/span&gt;&lt;span style=&quot;font-size: 11px; color: rgb(131, 148, 150);&quot;&gt;,&lt;br&gt;&lt;/span&gt;&lt;/font&gt;&lt;font style=&quot;background-color: rgb(30, 26, 34);&quot; face=&quot;Verdana&quot;&gt;&lt;span style=&quot;font-size: 11px; color: rgb(131, 148, 150);&quot;&gt;&amp;nbsp;rpt_out:&amp;nbsp;&lt;/span&gt;&lt;span style=&quot;font-size: 11px; color: rgb(203, 75, 22);&quot;&gt;str&lt;/span&gt;&lt;span style=&quot;font-size: 11px; color: rgb(131, 148, 150);&quot;&gt;&amp;nbsp;&lt;/span&gt;&lt;span style=&quot;font-size: 11px; color: rgb(133, 153, 0);&quot;&gt;=&lt;/span&gt;&lt;span style=&quot;font-size: 11px; color: rgb(131, 148, 150);&quot;&gt;&amp;nbsp;&lt;/span&gt;&lt;span style=&quot;font-size: 11px; color: rgb(181, 137, 0);&quot;&gt;None&lt;/span&gt;&lt;span style=&quot;font-size: 11px; color: rgb(131, 148, 150);&quot;&gt;,&lt;br&gt;&lt;/span&gt;&lt;/font&gt;&lt;font style=&quot;background-color: rgb(30, 26, 34);&quot; face=&quot;Verdana&quot;&gt;&lt;span style=&quot;font-size: 11px; color: rgb(131, 148, 150);&quot;&gt;&amp;nbsp;clm_tbl:&amp;nbsp;&lt;/span&gt;&lt;span style=&quot;font-size: 11px; color: rgb(203, 75, 22);&quot;&gt;str&lt;/span&gt;&lt;span style=&quot;font-size: 11px; color: rgb(131, 148, 150);&quot;&gt;&amp;nbsp;&lt;/span&gt;&lt;span style=&quot;font-size: 11px; color: rgb(133, 153, 0);&quot;&gt;=&lt;/span&gt;&lt;span style=&quot;font-size: 11px; color: rgb(131, 148, 150);&quot;&gt;&amp;nbsp;&lt;/span&gt;&lt;span style=&quot;font-size: 11px; color: rgb(181, 137, 0);&quot;&gt;None&lt;/span&gt;&lt;span style=&quot;font-size: 11px; color: rgb(131, 148, 150);&quot;&gt;,&lt;/span&gt;&lt;/font&gt;&lt;div style=&quot;color: rgb(131, 148, 150); line-height: 19px; font-size: 11px;&quot;&gt;&lt;font style=&quot;background-color: rgb(30, 26, 34);&quot; face=&quot;Verdana&quot;&gt;&amp;nbsp;bsf_file_date:&amp;nbsp;&lt;span style=&quot;color: rgb(203, 75, 22);&quot;&gt;str&lt;/span&gt;&amp;nbsp;&lt;span style=&quot;color: rgb(133, 153, 0);&quot;&gt;=&lt;/span&gt;&amp;nbsp;&lt;span style=&quot;color: rgb(181, 137, 0);&quot;&gt;None&lt;/span&gt;):&lt;/font&gt;&lt;/div&gt;&lt;/blockquote&gt;" tooltip="Jupyter Notebook" id="2Yao9YdW4WMygOOBhZm5-35">
                    <mxCell style="shape=process;whiteSpace=wrap;html=1;backgroundOutline=1;fontSize=12;align=left;labelBackgroundColor=#1e1a22;gradientColor=none;strokeColor=default;labelBorderColor=default;" parent="2Yao9YdW4WMygOOBhZm5-34" vertex="1">
                        <mxGeometry y="20" width="310" height="170" as="geometry"/>
                    </mxCell>
                </UserObject>
                <object label="" tooltip="1" id="2Yao9YdW4WMygOOBhZm5-37">
                    <mxCell style="edgeStyle=none;html=1;exitX=0.5;exitY=1;exitDx=0;exitDy=0;entryX=0.523;entryY=-0.013;entryDx=0;entryDy=0;entryPerimeter=0;fontFamily=Tahoma;fontSize=9;fontColor=none;" parent="2Yao9YdW4WMygOOBhZm5-30" source="2Yao9YdW4WMygOOBhZm5-35" target="2Yao9YdW4WMygOOBhZm5-32" edge="1">
                        <mxGeometry relative="1" as="geometry"/>
                    </mxCell>
                </object>
                <mxCell id="2Yao9YdW4WMygOOBhZm5-36" value="&lt;div style=&quot;color: rgb(131, 148, 150); line-height: 181%; font-size: 10px;&quot;&gt;&lt;div style=&quot;line-height: 181%;&quot;&gt;&lt;span style=&quot;font-family: Tahoma; color: rgb(38, 139, 210);&quot;&gt;self&lt;/span&gt;&lt;span style=&quot;font-family: Tahoma;&quot;&gt;.&lt;/span&gt;&lt;span style=&quot;font-family: Tahoma; color: rgb(38, 139, 210);&quot;&gt;__getcounts&lt;/span&gt;&lt;/div&gt;&lt;div style=&quot;line-height: 181%;&quot;&gt;&lt;span style=&quot;font-family: Tahoma;&quot;&gt;(pgm_name&lt;/span&gt;&lt;span style=&quot;font-family: Tahoma; color: rgb(133, 153, 0);&quot;&gt;=&lt;/span&gt;&lt;span style=&quot;font-family: Tahoma;&quot;&gt;pgm_name, step_name&lt;/span&gt;&lt;span style=&quot;font-family: Tahoma; color: rgb(133, 153, 0);&quot;&gt;=&lt;/span&gt;&lt;span style=&quot;font-family: Tahoma;&quot;&gt;step_name)&lt;/span&gt;&lt;br&gt;&lt;/div&gt;&lt;/div&gt;" style="shape=process;html=1;backgroundOutline=1;labelBackgroundColor=#1e1a22;fontFamily=Helvetica;fontSize=12;align=left;spacingTop=1;glass=0;strokeWidth=1;whiteSpace=wrap;" parent="2Yao9YdW4WMygOOBhZm5-30" vertex="1">
                    <mxGeometry x="189" y="477" width="150" height="70" as="geometry"/>
                </mxCell>
                <UserObject label="" tooltip="2" id="2Yao9YdW4WMygOOBhZm5-38">
                    <mxCell style="edgeStyle=none;html=1;exitX=0.5;exitY=1;exitDx=0;exitDy=0;entryX=0.531;entryY=0.031;entryDx=0;entryDy=0;entryPerimeter=0;fontFamily=Tahoma;fontSize=9;fontColor=none;" parent="2Yao9YdW4WMygOOBhZm5-30" source="2Yao9YdW4WMygOOBhZm5-35" target="2Yao9YdW4WMygOOBhZm5-36" edge="1">
                        <mxGeometry relative="1" as="geometry"/>
                    </mxCell>
                </UserObject>
                <mxCell id="2Yao9YdW4WMygOOBhZm5-39" value="&lt;font color=&quot;#ffffff&quot;&gt;1&lt;/font&gt;" style="text;html=1;strokeColor=none;fillColor=none;align=center;verticalAlign=middle;whiteSpace=wrap;rounded=0;labelBackgroundColor=#1e1a22;fontFamily=Tahoma;fontSize=10;fontColor=none;" parent="2Yao9YdW4WMygOOBhZm5-30" vertex="1">
                    <mxGeometry x="99" y="417" width="20" height="20" as="geometry"/>
                </mxCell>
                <mxCell id="2Yao9YdW4WMygOOBhZm5-40" value="&lt;font color=&quot;#ffffff&quot;&gt;2&lt;/font&gt;" style="text;html=1;strokeColor=none;fillColor=none;align=center;verticalAlign=middle;whiteSpace=wrap;rounded=0;labelBackgroundColor=#1e1a22;fontFamily=Tahoma;fontSize=10;fontColor=none;" parent="2Yao9YdW4WMygOOBhZm5-30" vertex="1">
                    <mxGeometry x="193" y="417" width="20" height="20" as="geometry"/>
                </mxCell>
                <mxCell id="2Yao9YdW4WMygOOBhZm5-41" style="edgeStyle=none;jumpStyle=none;html=1;exitX=1;exitY=0.5;exitDx=0;exitDy=0;entryX=0;entryY=0.25;entryDx=0;entryDy=0;fontFamily=Tahoma;fontSize=10;fontColor=#FFFFFF;startSize=6;" parent="2Yao9YdW4WMygOOBhZm5-30" target="2Yao9YdW4WMygOOBhZm5-47" edge="1">
                    <mxGeometry relative="1" as="geometry">
                        <mxPoint x="574" y="283" as="sourcePoint"/>
                        <mxPoint x="605.6400000000001" y="279.13" as="targetPoint"/>
                    </mxGeometry>
                </mxCell>
                <mxCell id="2Yao9YdW4WMygOOBhZm5-43" value="&lt;font color=&quot;#ffffff&quot;&gt;Jupyter Notebook&lt;/font&gt;" style="swimlane;whiteSpace=wrap;html=1;fillColor=#1E1A22;glass=0;rounded=0;shadow=0;swimlaneFillColor=#1A151F;" parent="2Yao9YdW4WMygOOBhZm5-30" vertex="1">
                    <mxGeometry x="362" y="227" width="210" height="100" as="geometry"/>
                </mxCell>
                <UserObject label="&lt;font face=&quot;Verdana&quot;&gt;&lt;font style=&quot;font-size: 11px;&quot;&gt;&lt;font style=&quot;font-size: 11px;&quot;&gt;runner.&lt;/font&gt;&lt;span style=&quot;color: rgb(38, 139, 210);&quot;&gt;create_meta_info&lt;br&gt;&lt;/span&gt;&lt;/font&gt;&lt;/font&gt;&lt;blockquote style=&quot;margin: 0 0 0 40px; border: none; padding: 0px;&quot;&gt;&lt;span style=&quot;&quot;&gt;&lt;font face=&quot;Verdana&quot;&gt;&lt;font style=&quot;font-size: 11px;&quot;&gt;&lt;span style=&quot;color: rgb(131, 148, 150);&quot;&gt;(self,&lt;br&gt;&lt;/span&gt;&lt;/font&gt;&lt;/font&gt;&lt;font face=&quot;Verdana&quot;&gt;&lt;font style=&quot;font-size: 11px;&quot;&gt;&lt;span style=&quot;color: rgb(131, 148, 150);&quot;&gt;&amp;nbsp;table_name&lt;/span&gt;&lt;/font&gt;&lt;span style=&quot;font-size: 11px; color: rgb(131, 148, 150);&quot;&gt;: &lt;/span&gt;&lt;span style=&quot;font-size: 11px; color: rgb(203, 75, 22);&quot;&gt;str&lt;/span&gt;&lt;span style=&quot;font-size: 11px; color: rgb(131, 148, 150);&quot;&gt;,&lt;br&gt;&lt;/span&gt;&lt;/font&gt;&lt;font face=&quot;Verdana&quot;&gt;&lt;span style=&quot;font-size: 11px; color: rgb(131, 148, 150);&quot;&gt;&amp;nbsp;fil_4th_node: &lt;/span&gt;&lt;span style=&quot;font-size: 11px; color: rgb(203, 75, 22);&quot;&gt;str&lt;/span&gt;&lt;/font&gt;&lt;/span&gt;&lt;span style=&quot;font-size: 11px; font-family: Verdana; color: rgb(131, 148, 150);&quot;&gt;):&lt;/span&gt;&lt;/blockquote&gt;" tooltip="Jupyter Notebook" id="2Yao9YdW4WMygOOBhZm5-44">
                    <mxCell style="shape=process;whiteSpace=wrap;html=1;backgroundOutline=1;fontSize=12;align=left;labelBackgroundColor=#1e1a22;" parent="2Yao9YdW4WMygOOBhZm5-43" vertex="1">
                        <mxGeometry y="20" width="210" height="80" as="geometry"/>
                    </mxCell>
                </UserObject>
                <mxCell id="2Yao9YdW4WMygOOBhZm5-33" style="edgeStyle=none;jumpStyle=none;html=1;exitX=1;exitY=0.25;exitDx=0;exitDy=0;fontFamily=Tahoma;fontSize=10;fontColor=#FFFFFF;startSize=6;entryX=-0.003;entryY=0.355;entryDx=0;entryDy=0;entryPerimeter=0;" parent="2Yao9YdW4WMygOOBhZm5-30" source="2Yao9YdW4WMygOOBhZm5-34" target="2Yao9YdW4WMygOOBhZm5-44" edge="1">
                    <mxGeometry relative="1" as="geometry">
                        <mxPoint x="369" y="275" as="targetPoint"/>
                    </mxGeometry>
                </mxCell>
                <mxCell id="2Yao9YdW4WMygOOBhZm5-46" value="&lt;font style=&quot;background-color: rgb(26, 21, 31);&quot;&gt;Jupyter Notebook&lt;/font&gt;" style="swimlane;whiteSpace=wrap;html=1;glass=0;rounded=0;shadow=0;swimlaneFillColor=#1A151F;fillColor=#1A151F;fontColor=#F0F0F0" parent="2Yao9YdW4WMygOOBhZm5-30" vertex="1">
                    <mxGeometry x="603" y="230" width="210" height="150" as="geometry"/>
                </mxCell>
                <UserObject label="&lt;font face=&quot;Verdana&quot;&gt;&lt;font style=&quot;font-size: 11px;&quot;&gt;&lt;font style=&quot;font-size: 11px;&quot;&gt;runner.&lt;/font&gt;&lt;span style=&quot;color: rgb(38, 139, 210);&quot;&gt;create_eftsmeta_info&lt;br&gt;&lt;/span&gt;&lt;/font&gt;&lt;/font&gt;&lt;blockquote style=&quot;margin: 0 0 0 40px; border: none; padding: 0px;&quot;&gt;&lt;span style=&quot;&quot;&gt;&lt;font face=&quot;Verdana&quot;&gt;&lt;font style=&quot;font-size: 11px;&quot;&gt;&lt;span style=&quot;color: rgb(131, 148, 150);&quot;&gt;(self,&lt;br&gt;&lt;/span&gt;&lt;/font&gt;&lt;/font&gt;&lt;font face=&quot;Verdana&quot;&gt;&lt;font style=&quot;font-size: 11px;&quot;&gt;&lt;span style=&quot;color: rgb(131, 148, 150);&quot;&gt;&amp;nbsp;table_name&lt;/span&gt;&lt;/font&gt;&lt;span style=&quot;font-size: 11px; color: rgb(131, 148, 150);&quot;&gt;: &lt;/span&gt;&lt;span style=&quot;font-size: 11px; color: rgb(203, 75, 22);&quot;&gt;str&lt;/span&gt;&lt;span style=&quot;font-size: 11px; color: rgb(131, 148, 150);&quot;&gt;,&lt;br&gt;&lt;/span&gt;&lt;/font&gt;&lt;font face=&quot;Verdana&quot;&gt;&lt;span style=&quot;font-size: 11px; color: rgb(131, 148, 150);&quot;&gt;&amp;nbsp;pgm_name: &lt;/span&gt;&lt;span style=&quot;font-size: 11px; color: rgb(203, 75, 22);&quot;&gt;str,&lt;/span&gt;&lt;/font&gt;&lt;/span&gt;&lt;/blockquote&gt;&lt;blockquote style=&quot;margin: 0 0 0 40px; border: none; padding: 0px;&quot;&gt;&lt;span style=&quot;font-size: 11px; font-family: Verdana; color: rgb(131, 148, 150);&quot;&gt;&amp;nbsp;step_name: &lt;/span&gt;&lt;span style=&quot;font-size: 11px; font-family: Verdana;&quot;&gt;&lt;font color=&quot;#b8471a&quot;&gt;str&lt;/font&gt;&lt;/span&gt;&lt;span style=&quot;font-size: 11px; font-family: Verdana; color: rgb(131, 148, 150);&quot;&gt;,&lt;/span&gt;&lt;/blockquote&gt;&lt;blockquote style=&quot;margin: 0 0 0 40px; border: none; padding: 0px;&quot;&gt;&lt;span style=&quot;font-size: 11px; font-family: Verdana; color: rgb(131, 148, 150);&quot;&gt;&amp;nbsp;object_name: &lt;/span&gt;&lt;span style=&quot;font-size: 11px; font-family: Verdana;&quot;&gt;&lt;font color=&quot;#cb4b15&quot;&gt;str&lt;/font&gt;&lt;/span&gt;&lt;span style=&quot;font-size: 11px; font-family: Verdana; color: rgb(131, 148, 150);&quot;&gt;,&lt;/span&gt;&lt;/blockquote&gt;&lt;blockquote style=&quot;margin: 0 0 0 40px; border: none; padding: 0px;&quot;&gt;&lt;span style=&quot;font-size: 11px; font-family: Verdana; color: rgb(131, 148, 150);&quot;&gt;&amp;nbsp;audt_cnt: &lt;/span&gt;&lt;span style=&quot;font-size: 11px; font-family: Verdana;&quot;&gt;&lt;font color=&quot;#cb4b15&quot;&gt;str&lt;/font&gt;&lt;/span&gt;&lt;span style=&quot;font-size: 11px; font-family: Verdana; color: rgb(131, 148, 150);&quot;&gt;):&lt;/span&gt;&lt;/blockquote&gt;" tooltip="Jupyter Notebook" id="2Yao9YdW4WMygOOBhZm5-47">
                    <mxCell style="shape=process;whiteSpace=wrap;html=1;backgroundOutline=1;fontSize=12;align=left;labelBackgroundColor=#1e1a22;" parent="2Yao9YdW4WMygOOBhZm5-46" vertex="1">
                        <mxGeometry y="21" width="210" height="130" as="geometry"/>
                    </mxCell>
                </UserObject>
                <mxCell id="2Yao9YdW4WMygOOBhZm5-48" value="&lt;div style=&quot;font-family: Consolas, &amp;quot;Courier New&amp;quot;, monospace; line-height: 19px;&quot;&gt;&lt;span style=&quot;font-style: italic;&quot;&gt;&lt;font style=&quot;font-size: 11px;&quot; color=&quot;#b58900&quot;&gt;&amp;nbsp;Helper function to create and inject meta info.&lt;/font&gt;&lt;/span&gt;&lt;/div&gt;" style="whiteSpace=wrap;html=1;labelBackgroundColor=#18141d;strokeColor=default;fontFamily=Tahoma;fontSize=10;fontColor=#cb4b15;fillColor=#1E1A22;" parent="2Yao9YdW4WMygOOBhZm5-30" vertex="1">
                    <mxGeometry x="362" y="347" width="210" height="60" as="geometry"/>
                </mxCell>
                <mxCell id="2Yao9YdW4WMygOOBhZm5-50" value="&lt;font color=&quot;#ffffff&quot;&gt;Jupyter Notebook&lt;/font&gt;" style="swimlane;whiteSpace=wrap;html=1;fillColor=#1E1A22;glass=0;rounded=0;shadow=0;swimlaneFillColor=#1A151F;" parent="2Yao9YdW4WMygOOBhZm5-30" vertex="1">
                    <mxGeometry x="879" y="233" width="210" height="80" as="geometry"/>
                </mxCell>
                <UserObject label="&lt;font face=&quot;Verdana&quot;&gt;&lt;font style=&quot;font-size: 11px;&quot;&gt;&lt;font style=&quot;font-size: 11px;&quot;&gt;runner.&lt;/font&gt;&lt;span style=&quot;color: rgb(38, 139, 210);&quot;&gt;file_contents&lt;br&gt;&lt;/span&gt;&lt;/font&gt;&lt;/font&gt;&lt;blockquote style=&quot;margin: 0 0 0 40px; border: none; padding: 0px;&quot;&gt;&lt;span style=&quot;&quot;&gt;&lt;font face=&quot;Verdana&quot;&gt;&lt;font style=&quot;font-size: 11px;&quot;&gt;&lt;span style=&quot;color: rgb(131, 148, 150);&quot;&gt;(self,&lt;br&gt;&lt;/span&gt;&lt;/font&gt;&lt;/font&gt;&lt;font face=&quot;Verdana&quot;&gt;&lt;font style=&quot;font-size: 11px;&quot;&gt;&lt;span style=&quot;color: rgb(131, 148, 150);&quot;&gt;&amp;nbsp;table_name&lt;/span&gt;&lt;/font&gt;&lt;span style=&quot;font-size: 11px; color: rgb(131, 148, 150);&quot;&gt;: &lt;/span&gt;&lt;span style=&quot;font-size: 11px; color: rgb(203, 75, 22);&quot;&gt;str&lt;/span&gt;&lt;/font&gt;&lt;/span&gt;&lt;span style=&quot;color: rgb(131, 148, 150); font-family: Verdana; font-size: 11px;&quot;&gt;):&lt;/span&gt;&lt;/blockquote&gt;" tooltip="Jupyter Notebook" id="2Yao9YdW4WMygOOBhZm5-51">
                    <mxCell style="shape=process;whiteSpace=wrap;html=1;backgroundOutline=1;fontSize=12;align=left;labelBackgroundColor=#1e1a22;" parent="2Yao9YdW4WMygOOBhZm5-50" vertex="1">
                        <mxGeometry y="20" width="210" height="60" as="geometry"/>
                    </mxCell>
                </UserObject>
                <mxCell id="2Yao9YdW4WMygOOBhZm5-45" style="edgeStyle=none;jumpStyle=none;html=1;exitX=1;exitY=0.25;exitDx=0;exitDy=0;entryX=0;entryY=0.5;entryDx=0;entryDy=0;fontFamily=Tahoma;fontSize=12;fontColor=#b58901;startSize=6;" parent="2Yao9YdW4WMygOOBhZm5-30" source="2Yao9YdW4WMygOOBhZm5-47" target="2Yao9YdW4WMygOOBhZm5-51" edge="1">
                    <mxGeometry relative="1" as="geometry"/>
                </mxCell>
                <mxCell id="2Yao9YdW4WMygOOBhZm5-52" value="&lt;div style=&quot;font-family: Consolas, &amp;quot;Courier New&amp;quot;, monospace; line-height: 19px;&quot;&gt;&lt;div style=&quot;line-height: 19px;&quot;&gt;&lt;span style=&quot;font-style: italic; background-color: rgb(24, 20, 29);&quot;&gt;&lt;font color=&quot;#b58901&quot; style=&quot;font-size: 12px;&quot;&gt;Helper function to display contents of a table given table name and da_run_id.&lt;/font&gt;&lt;/span&gt;&lt;/div&gt;&lt;/div&gt;" style="whiteSpace=wrap;html=1;labelBackgroundColor=#18141d;strokeColor=default;fontFamily=Tahoma;fontSize=10;fontColor=#cb4b15;fillColor=#1E1A22;" parent="2Yao9YdW4WMygOOBhZm5-30" vertex="1">
                    <mxGeometry x="879" y="333" width="210" height="60" as="geometry"/>
                </mxCell>
                <mxCell id="2Yao9YdW4WMygOOBhZm5-56" value="" style="swimlane;startSize=0;labelBackgroundColor=#1e1a22;strokeColor=default;fontFamily=Tahoma;fontSize=17;fontColor=#b58900;fillColor=#1E1A22;html=1;swimlaneFillColor=#1A151F;" parent="2Yao9YdW4WMygOOBhZm5-30" vertex="1">
                    <mxGeometry x="13" y="60" width="326" height="155" as="geometry"/>
                </mxCell>
                <mxCell id="2Yao9YdW4WMygOOBhZm5-57" value="&lt;div style=&quot;font-size: 12px;&quot;&gt;&lt;font style=&quot;font-size: 12px;&quot; color=&quot;#f0f0f0&quot;&gt;&lt;b&gt;Prep Metadata Parameters&lt;/b&gt;&lt;/font&gt;&lt;/div&gt;&lt;div style=&quot;font-size: 12px;&quot;&gt;&lt;font color=&quot;#839497&quot; style=&quot;font-size: 12px;&quot;&gt;&lt;b&gt;pgn_name&lt;/b&gt;: &lt;/font&gt;&lt;font color=&quot;#c0c0c0&quot; style=&quot;font-size: 12px;&quot;&gt;Program name to be prepped&lt;/font&gt;&lt;/div&gt;&lt;div style=&quot;font-size: 12px;&quot;&gt;&lt;font color=&quot;#839497&quot; style=&quot;font-size: 12px;&quot;&gt;&lt;b&gt;step_name&lt;/b&gt;: &lt;/font&gt;&lt;font color=&quot;#c0c0c0&quot; style=&quot;font-size: 12px;&quot;&gt;Step name as part of the program.&lt;/font&gt;&lt;/div&gt;&lt;div style=&quot;font-size: 12px;&quot;&gt;&lt;font color=&quot;#839497&quot; style=&quot;font-size: 12px;&quot;&gt;&lt;b&gt;filetyp&lt;/b&gt;: &lt;/font&gt;&lt;font color=&quot;#c0c0c0&quot; style=&quot;font-size: 12px;&quot;&gt;Which file type we should create metadata&amp;nbsp;&lt;/font&gt;&lt;/div&gt;&lt;div style=&quot;font-size: 12px;&quot;&gt;&lt;font color=&quot;#c0c0c0&quot; style=&quot;font-size: 12px;&quot;&gt;&lt;span style=&quot;white-space: pre;&quot;&gt; &lt;/span&gt;&amp;nbsp; &amp;nbsp; &amp;nbsp;on. e.g. LT, OT, RX, etc.&lt;/font&gt;&lt;/div&gt;&lt;div style=&quot;font-size: 12px;&quot;&gt;&lt;font color=&quot;#839497&quot; style=&quot;font-size: 12px;&quot;&gt;&lt;b&gt;fl&lt;/b&gt;: &lt;/font&gt;&lt;font color=&quot;#c0c0c0&quot; style=&quot;font-size: 12px;&quot;&gt;Primary file abbr.&lt;/font&gt;&lt;/div&gt;&lt;div style=&quot;font-size: 12px;&quot;&gt;&lt;font color=&quot;#839497&quot; style=&quot;font-size: 12px;&quot;&gt;&lt;b&gt;fl2&lt;/b&gt;: &lt;/font&gt;&lt;font color=&quot;#c0c0c0&quot; style=&quot;font-size: 12px;&quot;&gt;Secondary file abbr. (If different from 1st)&lt;/font&gt;&lt;/div&gt;&lt;div style=&quot;font-size: 12px;&quot;&gt;&lt;font color=&quot;#839497&quot; style=&quot;font-size: 12px;&quot;&gt;&lt;b&gt;rpt_out&lt;/b&gt;: &lt;/font&gt;&lt;font style=&quot;font-size: 12px;&quot;&gt;&lt;font color=&quot;#c0c0c0&quot;&gt;Reporting period in the format of &lt;/font&gt;&lt;i style=&quot;&quot;&gt;&lt;font color=&quot;#c48508&quot;&gt;%d%b%Y&lt;/font&gt;&lt;/i&gt;&lt;/font&gt;&lt;/div&gt;&lt;div style=&quot;font-size: 12px;&quot;&gt;&lt;font color=&quot;#839497&quot; style=&quot;font-size: 12px;&quot;&gt;&lt;b&gt;clm_tbl&lt;/b&gt;: &lt;/font&gt;&lt;font color=&quot;#c0c0c0&quot; style=&quot;font-size: 12px;&quot;&gt;Claim Table Name. e.g. TAF_IPH&lt;/font&gt;&lt;/div&gt;&lt;div style=&quot;font-size: 12px;&quot;&gt;&lt;font color=&quot;#839497&quot; style=&quot;font-size: 12px;&quot;&gt;&lt;b&gt;bsf_file_date&lt;/b&gt;: &lt;/font&gt;&lt;font color=&quot;#c0c0c0&quot; style=&quot;font-size: 12px;&quot;&gt;BSF File Date in the format of &lt;/font&gt;&lt;font color=&quot;#c48508&quot; style=&quot;font-size: 12px;&quot;&gt;&lt;i&gt;%Y%m&lt;/i&gt;&lt;/font&gt;&lt;/div&gt;" style="text;html=1;align=left;verticalAlign=middle;resizable=0;points=[];autosize=1;strokeColor=none;fillColor=none;fontSize=17;fontFamily=Tahoma;fontColor=#b58900;" parent="2Yao9YdW4WMygOOBhZm5-56" vertex="1">
                    <mxGeometry x="16" y="-5" width="310" height="160" as="geometry"/>
                </mxCell>
                <mxCell id="2Yao9YdW4WMygOOBhZm5-69" value="" style="edgeStyle=none;jumpStyle=none;html=1;fontFamily=Tahoma;fontSize=12;fontColor=#F0F0F0;startSize=6;" parent="2Yao9YdW4WMygOOBhZm5-30" source="2Yao9YdW4WMygOOBhZm5-58" target="2Yao9YdW4WMygOOBhZm5-61" edge="1">
                    <mxGeometry relative="1" as="geometry"/>
                </mxCell>
                <mxCell id="2Yao9YdW4WMygOOBhZm5-58" value="" style="swimlane;startSize=0;labelBackgroundColor=#1e1a22;strokeColor=default;fontFamily=Tahoma;fontSize=17;fontColor=#b58900;fillColor=#1E1A22;html=1;fillStyle=auto;gradientColor=none;swimlaneFillColor=#1A151F;" parent="2Yao9YdW4WMygOOBhZm5-30" vertex="1">
                    <mxGeometry x="355" y="111" width="240" height="100" as="geometry"/>
                </mxCell>
                <mxCell id="2Yao9YdW4WMygOOBhZm5-59" value="&lt;div style=&quot;font-size: 12px;&quot;&gt;&lt;font style=&quot;font-size: 12px;&quot; color=&quot;#f0f0f0&quot;&gt;&lt;b&gt;Create Metadata Parameters&lt;/b&gt;&lt;/font&gt;&lt;/div&gt;&lt;div style=&quot;font-size: 12px;&quot;&gt;&lt;font style=&quot;background-color: initial;&quot; color=&quot;#839497&quot;&gt;&lt;b&gt;table-name&lt;/b&gt;: &lt;/font&gt;&lt;font style=&quot;background-color: initial;&quot; color=&quot;#c0c0c0&quot;&gt;Claim Table Name.&amp;nbsp;&lt;/font&gt;&lt;br&gt;&lt;/div&gt;&lt;div style=&quot;font-size: 12px;&quot;&gt;&lt;font color=&quot;#c0c0c0&quot; style=&quot;font-size: 12px;&quot;&gt;&lt;span style=&quot;white-space: pre;&quot;&gt; &lt;/span&gt;&lt;span style=&quot;white-space: pre;&quot;&gt; &lt;/span&gt;&amp;nbsp; &amp;nbsp; &amp;nbsp;e.g. TAF_IPH&lt;/font&gt;&lt;/div&gt;&lt;div style=&quot;font-size: 12px;&quot;&gt;&lt;font color=&quot;#839497&quot; style=&quot;font-size: 12px;&quot;&gt;&lt;b&gt;fil_4th_node&lt;/b&gt;: &lt;/font&gt;&lt;font color=&quot;#c0c0c0&quot; style=&quot;font-size: 12px;&quot;&gt;4th node datalines value&lt;/font&gt;&lt;/div&gt;" style="text;html=1;align=left;verticalAlign=middle;resizable=0;points=[];autosize=1;strokeColor=none;fillColor=none;fontSize=17;fontFamily=Tahoma;fontColor=#b58900;" parent="2Yao9YdW4WMygOOBhZm5-58" vertex="1">
                    <mxGeometry y="15" width="240" height="70" as="geometry"/>
                </mxCell>
                <mxCell id="2Yao9YdW4WMygOOBhZm5-60" value="" style="swimlane;startSize=0;labelBackgroundColor=#1e1a22;strokeColor=default;fontFamily=Tahoma;fontSize=17;fontColor=#b58900;fillColor=#1E1A22;html=1;swimlaneFillColor=#1A151F;" parent="2Yao9YdW4WMygOOBhZm5-30" vertex="1">
                    <mxGeometry x="609" y="101" width="280" height="110" as="geometry"/>
                </mxCell>
                <mxCell id="2Yao9YdW4WMygOOBhZm5-61" value="&lt;div style=&quot;font-size: 12px;&quot;&gt;&lt;font style=&quot;font-size: 12px;&quot; color=&quot;#f0f0f0&quot;&gt;&lt;b&gt;Prep Metadata Parameters&lt;/b&gt;&lt;/font&gt;&lt;/div&gt;&lt;div style=&quot;font-size: 12px;&quot;&gt;&lt;font color=&quot;#839497&quot;&gt;&lt;b&gt;table_name&lt;/b&gt;:&amp;nbsp;&lt;/font&gt;&lt;font color=&quot;#c0c0c0&quot;&gt;Claim Table Name. e.g. TAF_IPH&lt;/font&gt;&lt;font style=&quot;font-size: 12px;&quot; color=&quot;#f0f0f0&quot;&gt;&lt;b&gt;&lt;br&gt;&lt;/b&gt;&lt;/font&gt;&lt;/div&gt;&lt;div style=&quot;font-size: 12px;&quot;&gt;&lt;font color=&quot;#839497&quot; style=&quot;font-size: 12px;&quot;&gt;&lt;b&gt;pgn_name&lt;/b&gt;: &lt;/font&gt;&lt;font color=&quot;#c0c0c0&quot; style=&quot;font-size: 12px;&quot;&gt;Program name to be prepped&lt;/font&gt;&lt;/div&gt;&lt;div style=&quot;font-size: 12px;&quot;&gt;&lt;font color=&quot;#839497&quot; style=&quot;font-size: 12px;&quot;&gt;&lt;b&gt;step_name&lt;/b&gt;: &lt;/font&gt;&lt;font color=&quot;#c0c0c0&quot; style=&quot;font-size: 12px;&quot;&gt;Step name as part of the program.&lt;/font&gt;&lt;/div&gt;&lt;div style=&quot;font-size: 12px;&quot;&gt;&lt;b style=&quot;color: rgb(131, 148, 151);&quot;&gt;object_name: &lt;/b&gt;&lt;font color=&quot;#c0c0c0&quot;&gt;Segment name to run&lt;/font&gt;&lt;/div&gt;&lt;div style=&quot;font-size: 12px;&quot;&gt;&lt;font style=&quot;font-size: 12px;&quot;&gt;&lt;b style=&quot;color: rgb(131, 148, 151); font-size: 12px;&quot;&gt;audt_cnt: &lt;/b&gt;&lt;font color=&quot;#c0c0c0&quot; style=&quot;font-size: 12px;&quot;&gt;field name to perform audit count on&lt;/font&gt;&lt;/font&gt;&lt;/div&gt;" style="text;html=1;align=left;verticalAlign=middle;resizable=0;points=[];autosize=1;strokeColor=none;fillColor=none;fontSize=17;fontFamily=Tahoma;fontColor=#b58900;" parent="2Yao9YdW4WMygOOBhZm5-60" vertex="1">
                    <mxGeometry x="16" y="10" width="280" height="100" as="geometry"/>
                </mxCell>
                <mxCell id="2Yao9YdW4WMygOOBhZm5-62" value="" style="swimlane;startSize=0;labelBackgroundColor=#1e1a22;strokeColor=default;fontFamily=Tahoma;fontSize=17;fontColor=#b58900;fillColor=#1E1A22;html=1;swimlaneFillColor=#1A151F;" parent="2Yao9YdW4WMygOOBhZm5-30" vertex="1">
                    <mxGeometry x="899" y="140" width="200" height="68" as="geometry"/>
                </mxCell>
                <mxCell id="2Yao9YdW4WMygOOBhZm5-63" value="&lt;div style=&quot;font-size: 12px;&quot;&gt;&lt;font style=&quot;font-size: 12px;&quot; color=&quot;#f0f0f0&quot;&gt;&lt;b&gt;File Contents Parameters&lt;/b&gt;&lt;/font&gt;&lt;/div&gt;&lt;div style=&quot;font-size: 12px;&quot;&gt;&lt;font style=&quot;background-color: initial;&quot; color=&quot;#839497&quot;&gt;&lt;b&gt;table-name&lt;/b&gt;: &lt;/font&gt;&lt;font style=&quot;background-color: initial;&quot; color=&quot;#c0c0c0&quot;&gt;Claim Table Name.&amp;nbsp;&lt;/font&gt;&lt;br&gt;&lt;/div&gt;&lt;div style=&quot;font-size: 12px;&quot;&gt;&lt;font color=&quot;#c0c0c0&quot; style=&quot;font-size: 12px;&quot;&gt;&lt;span style=&quot;white-space: pre;&quot;&gt; &lt;/span&gt;&lt;span style=&quot;white-space: pre;&quot;&gt; &lt;/span&gt;&amp;nbsp; &amp;nbsp; &amp;nbsp;e.g. TAF_IPH&lt;/font&gt;&lt;/div&gt;&lt;div style=&quot;font-size: 12px;&quot;&gt;&lt;br&gt;&lt;/div&gt;" style="text;html=1;align=left;verticalAlign=middle;resizable=0;points=[];autosize=1;strokeColor=none;fillColor=none;fontSize=17;fontFamily=Tahoma;fontColor=#b58900;" parent="2Yao9YdW4WMygOOBhZm5-62" vertex="1">
                    <mxGeometry y="17" width="200" height="70" as="geometry"/>
                </mxCell>
                <mxCell id="2Yao9YdW4WMygOOBhZm5-65" value="&lt;div style=&quot;font-family: Consolas, &amp;quot;Courier New&amp;quot;, monospace; line-height: 19px;&quot;&gt;&lt;span style=&quot;font-style: italic;&quot;&gt;&lt;font style=&quot;font-size: 11px;&quot; color=&quot;#b58900&quot;&gt;&amp;nbsp;Helper function to create and inject eftsmeta info.&lt;/font&gt;&lt;/span&gt;&lt;/div&gt;" style="whiteSpace=wrap;html=1;labelBackgroundColor=#18141d;strokeColor=default;fontFamily=Tahoma;fontSize=10;fontColor=#cb4b15;fillColor=#1E1A22;" parent="2Yao9YdW4WMygOOBhZm5-30" vertex="1">
                    <mxGeometry x="603" y="397" width="210" height="60" as="geometry"/>
                </mxCell>
            </root>
        </mxGraphModel>
    </diagram>
    <diagram id="h5qsCvP3jsSO1fFlrK01" name="Page-2">
        <mxGraphModel dx="1112" dy="662" grid="1" gridSize="10" guides="1" tooltips="1" connect="1" arrows="1" fold="1" page="1" pageScale="1" pageWidth="850" pageHeight="1100" math="0" shadow="0">
            <root>
                <mxCell id="0"/>
                <mxCell id="1" parent="0"/>
                <mxCell id="axYiaLlK4LFOOt4X8vs_-2" value="&lt;h1 style=&quot;text-rendering: optimizelegibility; font-family: -apple-system, BlinkMacSystemFont, &amp;quot;Segoe UI&amp;quot;, Roboto, &amp;quot;Helvetica Neue&amp;quot;, Arial, &amp;quot;Noto Sans&amp;quot;, sans-serif, &amp;quot;Apple Color Emoji&amp;quot;, &amp;quot;Segoe UI Emoji&amp;quot;, &amp;quot;Segoe UI Symbol&amp;quot;, &amp;quot;Noto Color Emoji&amp;quot;, FontAwesome; font-weight: 200; line-height: 36px; margin: 10px 0px; font-size: 26px; text-align: start;&quot;&gt;&lt;span style=&quot;background-color: rgb(25, 20, 30);&quot;&gt;taf_python.efts_fil_meta&lt;/span&gt;&lt;/h1&gt;" style="shape=table;childLayout=tableLayout;startSize=80;collapsible=0;recursiveResize=0;expand=0;labelBackgroundColor=default;strokeColor=default;fontFamily=Tahoma;fontSize=12;fontColor=#ffffff;fillColor=#0050ef;html=1;" parent="1" vertex="1">
                    <mxGeometry x="100" y="110" width="2200" height="190" as="geometry"/>
                </mxCell>
                <mxCell id="axYiaLlK4LFOOt4X8vs_-3" value="" style="shape=tableRow;horizontal=0;swimlaneHead=0;swimlaneBody=0;top=0;left=0;bottom=0;right=0;dropTarget=0;fontStyle=0;fillColor=none;points=[[0,0.5],[1,0.5]];portConstraint=eastwest;startSize=40;collapsible=0;recursiveResize=0;expand=0;labelBackgroundColor=default;strokeColor=default;fontFamily=Tahoma;fontSize=12;fontColor=#F0F0F0;html=1;" parent="axYiaLlK4LFOOt4X8vs_-2" vertex="1">
                    <mxGeometry y="80" width="2200" height="110" as="geometry"/>
                </mxCell>
                <mxCell id="axYiaLlK4LFOOt4X8vs_-4" value="DA_RUN_ID" style="swimlane;swimlaneHead=0;swimlaneBody=0;fontStyle=0;connectable=0;fillColor=none;startSize=40;collapsible=0;recursiveResize=0;expand=0;labelBackgroundColor=default;strokeColor=default;fontFamily=Tahoma;fontSize=12;fontColor=#F0F0F0;html=1;swimlaneFillColor=#19141E;" parent="axYiaLlK4LFOOt4X8vs_-3" vertex="1">
                    <mxGeometry x="40" width="120" height="110" as="geometry">
                        <mxRectangle width="120" height="110" as="alternateBounds"/>
                    </mxGeometry>
                </mxCell>
                <mxCell id="axYiaLlK4LFOOt4X8vs_-5" value="FIL_4TH_NODE_TXT" style="swimlane;swimlaneHead=0;swimlaneBody=0;fontStyle=0;connectable=0;fillColor=none;startSize=40;collapsible=0;recursiveResize=0;expand=0;labelBackgroundColor=default;strokeColor=default;fontFamily=Tahoma;fontSize=12;fontColor=#F0F0F0;html=1;swimlaneFillColor=#19141E;" parent="axYiaLlK4LFOOt4X8vs_-3" vertex="1">
                    <mxGeometry x="160" width="120" height="110" as="geometry">
                        <mxRectangle width="120" height="110" as="alternateBounds"/>
                    </mxGeometry>
                </mxCell>
                <mxCell id="axYiaLlK4LFOOt4X8vs_-6" value="OTPT_NAME" style="swimlane;swimlaneHead=0;swimlaneBody=0;fontStyle=0;connectable=0;fillColor=none;startSize=40;collapsible=0;recursiveResize=0;expand=0;labelBackgroundColor=default;strokeColor=default;fontFamily=Tahoma;fontSize=12;fontColor=#F0F0F0;html=1;swimlaneFillColor=#19141E;" parent="axYiaLlK4LFOOt4X8vs_-3" vertex="1">
                    <mxGeometry x="280" width="120" height="110" as="geometry">
                        <mxRectangle width="120" height="110" as="alternateBounds"/>
                    </mxGeometry>
                </mxCell>
                <mxCell id="axYiaLlK4LFOOt4X8vs_-7" value="RPTG_PRD" style="swimlane;swimlaneHead=0;swimlaneBody=0;fontStyle=0;connectable=0;fillColor=none;startSize=40;collapsible=0;recursiveResize=0;expand=0;labelBackgroundColor=default;strokeColor=default;fontFamily=Tahoma;fontSize=12;fontColor=#F0F0F0;html=1;swimlaneFillColor=#19141E;" parent="axYiaLlK4LFOOt4X8vs_-3" vertex="1">
                    <mxGeometry x="400" width="120" height="110" as="geometry">
                        <mxRectangle width="120" height="110" as="alternateBounds"/>
                    </mxGeometry>
                </mxCell>
                <mxCell id="pkK4yvhUexYtZ6XhbP0I-42" value="&lt;h1 style=&quot;text-rendering: optimizelegibility; font-family: -apple-system, BlinkMacSystemFont, &amp;quot;Segoe UI&amp;quot;, Roboto, &amp;quot;Helvetica Neue&amp;quot;, Arial, &amp;quot;Noto Sans&amp;quot;, sans-serif, &amp;quot;Apple Color Emoji&amp;quot;, &amp;quot;Segoe UI Emoji&amp;quot;, &amp;quot;Segoe UI Symbol&amp;quot;, &amp;quot;Noto Color Emoji&amp;quot;, FontAwesome; font-weight: 200; line-height: 36px; margin: 10px 0px; font-size: 26px; text-align: start;&quot;&gt;&lt;span style=&quot;background-color: rgb(25, 20, 30);&quot;&gt;taf_python.efts_fil_meta&lt;/span&gt;&lt;/h1&gt;" style="shape=table;childLayout=tableLayout;startSize=80;collapsible=0;recursiveResize=0;expand=0;labelBackgroundColor=default;strokeColor=default;fontFamily=Tahoma;fontSize=12;fontColor=#F0F0F0;fillColor=default;html=1;" vertex="1" parent="axYiaLlK4LFOOt4X8vs_-7">
                    <mxGeometry x="-400" y="-80" width="2200" height="190" as="geometry"/>
                </mxCell>
                <mxCell id="pkK4yvhUexYtZ6XhbP0I-43" value="" style="shape=tableRow;horizontal=0;swimlaneHead=0;swimlaneBody=0;top=0;left=0;bottom=0;right=0;dropTarget=0;fontStyle=0;fillColor=none;points=[[0,0.5],[1,0.5]];portConstraint=eastwest;startSize=40;collapsible=0;recursiveResize=0;expand=0;labelBackgroundColor=default;strokeColor=default;fontFamily=Tahoma;fontSize=12;fontColor=#F0F0F0;html=1;" vertex="1" parent="pkK4yvhUexYtZ6XhbP0I-42">
                    <mxGeometry y="80" width="2200" height="110" as="geometry"/>
                </mxCell>
                <mxCell id="pkK4yvhUexYtZ6XhbP0I-44" value="DA_RUN_ID" style="swimlane;swimlaneHead=0;swimlaneBody=0;fontStyle=0;connectable=0;fillColor=#0050ef;startSize=40;collapsible=0;recursiveResize=0;expand=0;labelBackgroundColor=default;strokeColor=default;fontFamily=Tahoma;fontSize=12;fontColor=#ffffff;html=1;swimlaneFillColor=#19141E;" vertex="1" parent="pkK4yvhUexYtZ6XhbP0I-43">
                    <mxGeometry x="40" width="120" height="110" as="geometry">
                        <mxRectangle width="120" height="110" as="alternateBounds"/>
                    </mxGeometry>
                </mxCell>
                <mxCell id="pkK4yvhUexYtZ6XhbP0I-45" value="FIL_4TH_NODE_TXT" style="swimlane;swimlaneHead=0;swimlaneBody=0;fontStyle=0;connectable=0;fillColor=#0050ef;startSize=40;collapsible=0;recursiveResize=0;expand=0;labelBackgroundColor=default;strokeColor=default;fontFamily=Tahoma;fontSize=12;fontColor=#ffffff;html=1;swimlaneFillColor=#19141E;" vertex="1" parent="pkK4yvhUexYtZ6XhbP0I-43">
                    <mxGeometry x="160" width="120" height="110" as="geometry">
                        <mxRectangle width="120" height="110" as="alternateBounds"/>
                    </mxGeometry>
                </mxCell>
                <mxCell id="pkK4yvhUexYtZ6XhbP0I-46" value="OTPT_NAME" style="swimlane;swimlaneHead=0;swimlaneBody=0;fontStyle=0;connectable=0;fillColor=#0050ef;startSize=40;collapsible=0;recursiveResize=0;expand=0;labelBackgroundColor=default;strokeColor=default;fontFamily=Tahoma;fontSize=12;fontColor=#ffffff;html=1;swimlaneFillColor=#19141E;" vertex="1" parent="pkK4yvhUexYtZ6XhbP0I-43">
                    <mxGeometry x="280" width="120" height="110" as="geometry">
                        <mxRectangle width="120" height="110" as="alternateBounds"/>
                    </mxGeometry>
                </mxCell>
                <mxCell id="pkK4yvhUexYtZ6XhbP0I-47" value="RPTG_PRD" style="swimlane;swimlaneHead=0;swimlaneBody=0;fontStyle=0;connectable=0;fillColor=#0050ef;startSize=40;collapsible=0;recursiveResize=0;expand=0;labelBackgroundColor=default;strokeColor=default;fontFamily=Tahoma;fontSize=12;fontColor=#ffffff;html=1;swimlaneFillColor=#19141E;" vertex="1" parent="pkK4yvhUexYtZ6XhbP0I-43">
                    <mxGeometry x="400" width="120" height="110" as="geometry">
                        <mxRectangle width="120" height="110" as="alternateBounds"/>
                    </mxGeometry>
                </mxCell>
                <mxCell id="pkK4yvhUexYtZ6XhbP0I-48" value="&lt;span style=&quot;font-family: -apple-system, BlinkMacSystemFont, &amp;quot;Segoe UI&amp;quot;, Roboto, &amp;quot;Helvetica Neue&amp;quot;, Arial, &amp;quot;Noto Sans&amp;quot;, sans-serif, &amp;quot;Apple Color Emoji&amp;quot;, &amp;quot;Segoe UI Emoji&amp;quot;, &amp;quot;Segoe UI Symbol&amp;quot;, &amp;quot;Noto Color Emoji&amp;quot;, FontAwesome; font-size: 13px; font-style: normal; font-variant-ligatures: normal; font-variant-caps: normal; font-weight: 400; letter-spacing: normal; orphans: 2; text-align: start; text-indent: 0px; text-transform: none; widows: 2; word-spacing: 0px; -webkit-text-stroke-width: 0px; text-decoration-thickness: initial; text-decoration-style: initial; text-decoration-color: initial; float: none; display: inline !important; background-color: rgb(25, 20, 30);&quot;&gt;ITRTN_NUM&lt;/span&gt;" style="swimlane;swimlaneHead=0;swimlaneBody=0;fontStyle=0;connectable=0;fillColor=none;startSize=40;collapsible=0;recursiveResize=0;expand=0;labelBackgroundColor=default;strokeColor=default;fontFamily=Tahoma;fontSize=12;fontColor=#F0F0F0;html=1;swimlaneFillColor=#19141E;" vertex="1" parent="pkK4yvhUexYtZ6XhbP0I-43">
                    <mxGeometry x="520" width="120" height="110" as="geometry">
                        <mxRectangle width="120" height="110" as="alternateBounds"/>
                    </mxGeometry>
                </mxCell>
                <mxCell id="pkK4yvhUexYtZ6XhbP0I-49" value="&lt;span style=&quot;font-size: 13px; text-align: start; background-color: rgb(25, 20, 30);&quot;&gt;&lt;font style=&quot;&quot; face=&quot;-apple-system, BlinkMacSystemFont, Segoe UI, Roboto, Helvetica Neue, Arial, Noto Sans, sans-serif, Apple Color Emoji, Segoe UI Emoji, Segoe UI Symbol, Noto Color Emoji, FontAwesome&quot;&gt;TOT_REC_CNT&lt;/font&gt;&lt;/span&gt;" style="swimlane;swimlaneHead=0;swimlaneBody=0;fontStyle=0;connectable=0;fillColor=none;startSize=40;collapsible=0;recursiveResize=0;expand=0;labelBackgroundColor=default;strokeColor=default;fontFamily=Tahoma;fontSize=12;fontColor=#F0F0F0;html=1;swimlaneFillColor=#19141E;" vertex="1" parent="pkK4yvhUexYtZ6XhbP0I-43">
                    <mxGeometry x="640" width="120" height="110" as="geometry">
                        <mxRectangle width="120" height="110" as="alternateBounds"/>
                    </mxGeometry>
                </mxCell>
                <mxCell id="pkK4yvhUexYtZ6XhbP0I-50" value="&lt;span style=&quot;font-family: -apple-system, BlinkMacSystemFont, &amp;quot;Segoe UI&amp;quot;, Roboto, &amp;quot;Helvetica Neue&amp;quot;, Arial, &amp;quot;Noto Sans&amp;quot;, sans-serif, &amp;quot;Apple Color Emoji&amp;quot;, &amp;quot;Segoe UI Emoji&amp;quot;, &amp;quot;Segoe UI Symbol&amp;quot;, &amp;quot;Noto Color Emoji&amp;quot;, FontAwesome; font-size: 13px; text-align: start; background-color: rgb(25, 20, 30);&quot;&gt;FIL_CRET_DT&lt;/span&gt;" style="swimlane;swimlaneHead=0;swimlaneBody=0;fontStyle=0;connectable=0;fillColor=none;startSize=40;collapsible=0;recursiveResize=0;expand=0;labelBackgroundColor=default;strokeColor=default;fontFamily=Tahoma;fontSize=12;fontColor=#F0F0F0;html=1;swimlaneFillColor=#19141E;" vertex="1" parent="pkK4yvhUexYtZ6XhbP0I-43">
                    <mxGeometry x="760" width="120" height="110" as="geometry">
                        <mxRectangle width="120" height="110" as="alternateBounds"/>
                    </mxGeometry>
                </mxCell>
                <mxCell id="pkK4yvhUexYtZ6XhbP0I-51" value="&lt;span style=&quot;font-family: -apple-system, BlinkMacSystemFont, &amp;quot;Segoe UI&amp;quot;, Roboto, &amp;quot;Helvetica Neue&amp;quot;, Arial, &amp;quot;Noto Sans&amp;quot;, sans-serif, &amp;quot;Apple Color Emoji&amp;quot;, &amp;quot;Segoe UI Emoji&amp;quot;, &amp;quot;Segoe UI Symbol&amp;quot;, &amp;quot;Noto Color Emoji&amp;quot;, FontAwesome; font-size: 13px; text-align: start;&quot;&gt;INCLDD_STATE_CD&lt;/span&gt;" style="swimlane;swimlaneHead=0;swimlaneBody=0;fontStyle=0;connectable=0;fillColor=none;startSize=40;collapsible=0;recursiveResize=0;expand=0;labelBackgroundColor=#19141E;strokeColor=default;fontFamily=Tahoma;fontSize=12;fontColor=#F0F0F0;html=1;swimlaneFillColor=#19141E;" vertex="1" parent="pkK4yvhUexYtZ6XhbP0I-43">
                    <mxGeometry x="880" width="120" height="110" as="geometry">
                        <mxRectangle width="120" height="110" as="alternateBounds"/>
                    </mxGeometry>
                </mxCell>
                <mxCell id="pkK4yvhUexYtZ6XhbP0I-52" value="&lt;span style=&quot;font-family: -apple-system, BlinkMacSystemFont, &amp;quot;Segoe UI&amp;quot;, Roboto, &amp;quot;Helvetica Neue&amp;quot;, Arial, &amp;quot;Noto Sans&amp;quot;, sans-serif, &amp;quot;Apple Color Emoji&amp;quot;, &amp;quot;Segoe UI Emoji&amp;quot;, &amp;quot;Segoe UI Symbol&amp;quot;, &amp;quot;Noto Color Emoji&amp;quot;, FontAwesome; font-size: 13px; text-align: start;&quot;&gt;REC_CNT_BY_STATE_CD&lt;/span&gt;" style="swimlane;swimlaneHead=0;swimlaneBody=0;fontStyle=0;connectable=0;fillColor=#0050ef;startSize=40;collapsible=0;recursiveResize=0;expand=0;labelBackgroundColor=#19141E;strokeColor=#001DBC;fontFamily=Tahoma;fontSize=12;fontColor=#ffffff;html=1;swimlaneFillColor=#19141E;" vertex="1" parent="pkK4yvhUexYtZ6XhbP0I-43">
                    <mxGeometry x="1000" width="150" height="110" as="geometry">
                        <mxRectangle width="150" height="110" as="alternateBounds"/>
                    </mxGeometry>
                </mxCell>
                <mxCell id="pkK4yvhUexYtZ6XhbP0I-53" value="&lt;span style=&quot;font-family: -apple-system, BlinkMacSystemFont, &amp;quot;Segoe UI&amp;quot;, Roboto, &amp;quot;Helvetica Neue&amp;quot;, Arial, &amp;quot;Noto Sans&amp;quot;, sans-serif, &amp;quot;Apple Color Emoji&amp;quot;, &amp;quot;Segoe UI Emoji&amp;quot;, &amp;quot;Segoe UI Symbol&amp;quot;, &amp;quot;Noto Color Emoji&amp;quot;, FontAwesome; font-size: 13px; text-align: start; background-color: rgb(25, 20, 30);&quot;&gt;REC_ADD_TS&lt;/span&gt;" style="swimlane;swimlaneHead=0;swimlaneBody=0;fontStyle=0;connectable=0;fillColor=#0050ef;startSize=40;collapsible=0;recursiveResize=0;expand=0;labelBackgroundColor=default;strokeColor=#001DBC;fontFamily=Tahoma;fontSize=12;fontColor=#ffffff;html=1;swimlaneFillColor=#19141E;" vertex="1" parent="pkK4yvhUexYtZ6XhbP0I-43">
                    <mxGeometry x="1150" width="90" height="110" as="geometry">
                        <mxRectangle width="90" height="110" as="alternateBounds"/>
                    </mxGeometry>
                </mxCell>
                <mxCell id="pkK4yvhUexYtZ6XhbP0I-54" value="&lt;span style=&quot;font-family: -apple-system, BlinkMacSystemFont, &amp;quot;Segoe UI&amp;quot;, Roboto, &amp;quot;Helvetica Neue&amp;quot;, Arial, &amp;quot;Noto Sans&amp;quot;, sans-serif, &amp;quot;Apple Color Emoji&amp;quot;, &amp;quot;Segoe UI Emoji&amp;quot;, &amp;quot;Segoe UI Symbol&amp;quot;, &amp;quot;Noto Color Emoji&amp;quot;, FontAwesome; font-size: 13px; text-align: start;&quot;&gt;REC_UPDT_TS&lt;/span&gt;" style="swimlane;swimlaneHead=0;swimlaneBody=0;fontStyle=0;connectable=0;fillColor=#0050ef;startSize=40;collapsible=0;recursiveResize=0;expand=0;labelBackgroundColor=#19141E;strokeColor=#001DBC;fontFamily=Tahoma;fontSize=12;fontColor=#ffffff;html=1;swimlaneFillColor=#19141E;" vertex="1" parent="pkK4yvhUexYtZ6XhbP0I-43">
                    <mxGeometry x="1240" width="120" height="110" as="geometry">
                        <mxRectangle width="120" height="110" as="alternateBounds"/>
                    </mxGeometry>
                </mxCell>
                <mxCell id="pkK4yvhUexYtZ6XhbP0I-55" value="&lt;span style=&quot;font-family: -apple-system, BlinkMacSystemFont, &amp;quot;Segoe UI&amp;quot;, Roboto, &amp;quot;Helvetica Neue&amp;quot;, Arial, &amp;quot;Noto Sans&amp;quot;, sans-serif, &amp;quot;Apple Color Emoji&amp;quot;, &amp;quot;Segoe UI Emoji&amp;quot;, &amp;quot;Segoe UI Symbol&amp;quot;, &amp;quot;Noto Color Emoji&amp;quot;, FontAwesome; font-size: 13px; text-align: start;&quot;&gt;FIL_DT&lt;/span&gt;" style="swimlane;swimlaneHead=0;swimlaneBody=0;fontStyle=0;connectable=0;fillColor=#0050ef;startSize=40;collapsible=0;recursiveResize=0;expand=0;labelBackgroundColor=#19141E;strokeColor=#001DBC;fontFamily=Tahoma;fontSize=12;fontColor=#ffffff;html=1;swimlaneFillColor=#19141E;" vertex="1" parent="pkK4yvhUexYtZ6XhbP0I-43">
                    <mxGeometry x="1360" width="80" height="110" as="geometry">
                        <mxRectangle width="80" height="110" as="alternateBounds"/>
                    </mxGeometry>
                </mxCell>
                <mxCell id="pkK4yvhUexYtZ6XhbP0I-56" value="&lt;span style=&quot;font-family: -apple-system, BlinkMacSystemFont, &amp;quot;Segoe UI&amp;quot;, Roboto, &amp;quot;Helvetica Neue&amp;quot;, Arial, &amp;quot;Noto Sans&amp;quot;, sans-serif, &amp;quot;Apple Color Emoji&amp;quot;, &amp;quot;Segoe UI Emoji&amp;quot;, &amp;quot;Segoe UI Symbol&amp;quot;, &amp;quot;Noto Color Emoji&amp;quot;, FontAwesome; font-size: 13px; text-align: start;&quot;&gt;TAF_CD_SPEC_VRSN_NAME&lt;/span&gt;" style="swimlane;swimlaneHead=0;swimlaneBody=0;fontStyle=0;connectable=0;fillColor=#0050ef;startSize=40;collapsible=0;recursiveResize=0;expand=0;labelBackgroundColor=#19141E;strokeColor=#001DBC;fontFamily=Tahoma;fontSize=12;fontColor=#ffffff;html=1;swimlaneFillColor=#19141E;" vertex="1" parent="pkK4yvhUexYtZ6XhbP0I-43">
                    <mxGeometry x="1440" width="200" height="110" as="geometry">
                        <mxRectangle width="200" height="110" as="alternateBounds"/>
                    </mxGeometry>
                </mxCell>
                <mxCell id="pkK4yvhUexYtZ6XhbP0I-57" value="&lt;span style=&quot;font-family: -apple-system, BlinkMacSystemFont, &amp;quot;Segoe UI&amp;quot;, Roboto, &amp;quot;Helvetica Neue&amp;quot;, Arial, &amp;quot;Noto Sans&amp;quot;, sans-serif, &amp;quot;Apple Color Emoji&amp;quot;, &amp;quot;Segoe UI Emoji&amp;quot;, &amp;quot;Segoe UI Symbol&amp;quot;, &amp;quot;Noto Color Emoji&amp;quot;, FontAwesome; font-size: 13px; text-align: start; background-color: rgb(25, 20, 30);&quot;&gt;RFRSH_VW_FLAG&lt;/span&gt;" style="swimlane;swimlaneHead=0;swimlaneBody=0;fontStyle=0;connectable=0;fillColor=#0050ef;startSize=40;collapsible=0;recursiveResize=0;expand=0;labelBackgroundColor=default;strokeColor=#001DBC;fontFamily=Tahoma;fontSize=12;fontColor=#ffffff;html=1;swimlaneFillColor=#19141E;" vertex="1" parent="pkK4yvhUexYtZ6XhbP0I-43">
                    <mxGeometry x="1640" width="120" height="110" as="geometry">
                        <mxRectangle width="120" height="110" as="alternateBounds"/>
                    </mxGeometry>
                </mxCell>
                <mxCell id="pkK4yvhUexYtZ6XhbP0I-58" value="&lt;span style=&quot;font-family: -apple-system, BlinkMacSystemFont, &amp;quot;Segoe UI&amp;quot;, Roboto, &amp;quot;Helvetica Neue&amp;quot;, Arial, &amp;quot;Noto Sans&amp;quot;, sans-serif, &amp;quot;Apple Color Emoji&amp;quot;, &amp;quot;Segoe UI Emoji&amp;quot;, &amp;quot;Segoe UI Symbol&amp;quot;, &amp;quot;Noto Color Emoji&amp;quot;, FontAwesome; font-size: 13px; text-align: start;&quot;&gt;LTST_RUN_IND&lt;/span&gt;" style="swimlane;swimlaneHead=0;swimlaneBody=0;fontStyle=0;connectable=0;fillColor=#0050ef;startSize=40;collapsible=0;recursiveResize=0;expand=0;labelBackgroundColor=default;strokeColor=#001DBC;fontFamily=Tahoma;fontSize=12;fontColor=#ffffff;html=1;swimlaneFillColor=#19141E;" vertex="1" parent="pkK4yvhUexYtZ6XhbP0I-43">
                    <mxGeometry x="1760" width="100" height="110" as="geometry">
                        <mxRectangle width="100" height="110" as="alternateBounds"/>
                    </mxGeometry>
                </mxCell>
                <mxCell id="pkK4yvhUexYtZ6XhbP0I-59" value="&lt;span style=&quot;font-family: -apple-system, BlinkMacSystemFont, &amp;quot;Segoe UI&amp;quot;, Roboto, &amp;quot;Helvetica Neue&amp;quot;, Arial, &amp;quot;Noto Sans&amp;quot;, sans-serif, &amp;quot;Apple Color Emoji&amp;quot;, &amp;quot;Segoe UI Emoji&amp;quot;, &amp;quot;Segoe UI Symbol&amp;quot;, &amp;quot;Noto Color Emoji&amp;quot;, FontAwesome; font-size: 13px; text-align: start;&quot;&gt;CCB_QTR&lt;/span&gt;" style="swimlane;swimlaneHead=0;swimlaneBody=0;fontStyle=0;connectable=0;fillColor=#0050ef;startSize=40;collapsible=0;recursiveResize=0;expand=0;labelBackgroundColor=#19141E;strokeColor=#001DBC;fontFamily=Tahoma;fontSize=12;fontColor=#ffffff;html=1;swimlaneFillColor=#19141E;" vertex="1" parent="pkK4yvhUexYtZ6XhbP0I-43">
                    <mxGeometry x="1860" width="100" height="110" as="geometry">
                        <mxRectangle width="100" height="110" as="alternateBounds"/>
                    </mxGeometry>
                </mxCell>
                <mxCell id="pkK4yvhUexYtZ6XhbP0I-60" value="&lt;span style=&quot;font-family: -apple-system, BlinkMacSystemFont, &amp;quot;Segoe UI&amp;quot;, Roboto, &amp;quot;Helvetica Neue&amp;quot;, Arial, &amp;quot;Noto Sans&amp;quot;, sans-serif, &amp;quot;Apple Color Emoji&amp;quot;, &amp;quot;Segoe UI Emoji&amp;quot;, &amp;quot;Segoe UI Symbol&amp;quot;, &amp;quot;Noto Color Emoji&amp;quot;, FontAwesome; font-size: 13px; text-align: start;&quot;&gt;RIF_FINL_VRSN&lt;/span&gt;" style="swimlane;swimlaneHead=0;swimlaneBody=0;fontStyle=0;connectable=0;fillColor=#0050ef;startSize=40;collapsible=0;recursiveResize=0;expand=0;labelBackgroundColor=#19141E;strokeColor=#001DBC;fontFamily=Tahoma;fontSize=12;fontColor=#ffffff;html=1;swimlaneFillColor=#19141E;" vertex="1" parent="pkK4yvhUexYtZ6XhbP0I-43">
                    <mxGeometry x="1960" width="120" height="110" as="geometry">
                        <mxRectangle width="120" height="110" as="alternateBounds"/>
                    </mxGeometry>
                </mxCell>
                <mxCell id="pkK4yvhUexYtZ6XhbP0I-61" value="&lt;span style=&quot;font-family: -apple-system, BlinkMacSystemFont, &amp;quot;Segoe UI&amp;quot;, Roboto, &amp;quot;Helvetica Neue&amp;quot;, Arial, &amp;quot;Noto Sans&amp;quot;, sans-serif, &amp;quot;Apple Color Emoji&amp;quot;, &amp;quot;Segoe UI Emoji&amp;quot;, &amp;quot;Segoe UI Symbol&amp;quot;, &amp;quot;Noto Color Emoji&amp;quot;, FontAwesome; font-size: 13px; text-align: start;&quot;&gt;RIF_PRELIM_VRSN&lt;/span&gt;" style="swimlane;swimlaneHead=0;swimlaneBody=0;fontStyle=0;connectable=0;fillColor=#0050ef;startSize=40;collapsible=0;recursiveResize=0;expand=0;labelBackgroundColor=#19141E;strokeColor=#001DBC;fontFamily=Tahoma;fontSize=12;fontColor=#ffffff;html=1;swimlaneFillColor=#19141E;" vertex="1" parent="pkK4yvhUexYtZ6XhbP0I-43">
                    <mxGeometry x="2080" width="120" height="110" as="geometry">
                        <mxRectangle width="120" height="110" as="alternateBounds"/>
                    </mxGeometry>
                </mxCell>
                <mxCell id="axYiaLlK4LFOOt4X8vs_-8" value="&lt;span style=&quot;font-family: -apple-system, BlinkMacSystemFont, &amp;quot;Segoe UI&amp;quot;, Roboto, &amp;quot;Helvetica Neue&amp;quot;, Arial, &amp;quot;Noto Sans&amp;quot;, sans-serif, &amp;quot;Apple Color Emoji&amp;quot;, &amp;quot;Segoe UI Emoji&amp;quot;, &amp;quot;Segoe UI Symbol&amp;quot;, &amp;quot;Noto Color Emoji&amp;quot;, FontAwesome; font-size: 13px; font-style: normal; font-variant-ligatures: normal; font-variant-caps: normal; font-weight: 400; letter-spacing: normal; orphans: 2; text-align: start; text-indent: 0px; text-transform: none; widows: 2; word-spacing: 0px; -webkit-text-stroke-width: 0px; text-decoration-thickness: initial; text-decoration-style: initial; text-decoration-color: initial; float: none; display: inline !important; background-color: rgb(25, 20, 30);&quot;&gt;ITRTN_NUM&lt;/span&gt;" style="swimlane;swimlaneHead=0;swimlaneBody=0;fontStyle=0;connectable=0;fillColor=#0050ef;startSize=40;collapsible=0;recursiveResize=0;expand=0;labelBackgroundColor=default;strokeColor=default;fontFamily=Tahoma;fontSize=12;fontColor=#ffffff;html=1;swimlaneFillColor=#19141E;" parent="axYiaLlK4LFOOt4X8vs_-3" vertex="1">
                    <mxGeometry x="520" width="120" height="110" as="geometry">
                        <mxRectangle width="120" height="110" as="alternateBounds"/>
                    </mxGeometry>
                </mxCell>
                <mxCell id="axYiaLlK4LFOOt4X8vs_-9" value="&lt;span style=&quot;font-size: 13px; text-align: start; background-color: rgb(25, 20, 30);&quot;&gt;&lt;font style=&quot;&quot; face=&quot;-apple-system, BlinkMacSystemFont, Segoe UI, Roboto, Helvetica Neue, Arial, Noto Sans, sans-serif, Apple Color Emoji, Segoe UI Emoji, Segoe UI Symbol, Noto Color Emoji, FontAwesome&quot;&gt;TOT_REC_CNT&lt;/font&gt;&lt;/span&gt;" style="swimlane;swimlaneHead=0;swimlaneBody=0;fontStyle=0;connectable=0;fillColor=#0050ef;startSize=40;collapsible=0;recursiveResize=0;expand=0;labelBackgroundColor=default;strokeColor=default;fontFamily=Tahoma;fontSize=12;fontColor=#ffffff;html=1;swimlaneFillColor=#19141E;" parent="axYiaLlK4LFOOt4X8vs_-3" vertex="1">
                    <mxGeometry x="640" width="120" height="110" as="geometry">
                        <mxRectangle width="120" height="110" as="alternateBounds"/>
                    </mxGeometry>
                </mxCell>
                <mxCell id="axYiaLlK4LFOOt4X8vs_-10" value="&lt;span style=&quot;font-family: -apple-system, BlinkMacSystemFont, &amp;quot;Segoe UI&amp;quot;, Roboto, &amp;quot;Helvetica Neue&amp;quot;, Arial, &amp;quot;Noto Sans&amp;quot;, sans-serif, &amp;quot;Apple Color Emoji&amp;quot;, &amp;quot;Segoe UI Emoji&amp;quot;, &amp;quot;Segoe UI Symbol&amp;quot;, &amp;quot;Noto Color Emoji&amp;quot;, FontAwesome; font-size: 13px; text-align: start; background-color: rgb(25, 20, 30);&quot;&gt;FIL_CRET_DT&lt;/span&gt;" style="swimlane;swimlaneHead=0;swimlaneBody=0;fontStyle=0;connectable=0;fillColor=#0050ef;startSize=40;collapsible=0;recursiveResize=0;expand=0;labelBackgroundColor=default;strokeColor=default;fontFamily=Tahoma;fontSize=12;fontColor=#ffffff;html=1;swimlaneFillColor=#19141E;" parent="axYiaLlK4LFOOt4X8vs_-3" vertex="1">
                    <mxGeometry x="760" width="120" height="110" as="geometry">
                        <mxRectangle width="120" height="110" as="alternateBounds"/>
                    </mxGeometry>
                </mxCell>
                <mxCell id="axYiaLlK4LFOOt4X8vs_-11" value="&lt;span style=&quot;font-family: -apple-system, BlinkMacSystemFont, &amp;quot;Segoe UI&amp;quot;, Roboto, &amp;quot;Helvetica Neue&amp;quot;, Arial, &amp;quot;Noto Sans&amp;quot;, sans-serif, &amp;quot;Apple Color Emoji&amp;quot;, &amp;quot;Segoe UI Emoji&amp;quot;, &amp;quot;Segoe UI Symbol&amp;quot;, &amp;quot;Noto Color Emoji&amp;quot;, FontAwesome; font-size: 13px; text-align: start;&quot;&gt;INCLDD_STATE_CD&lt;/span&gt;" style="swimlane;swimlaneHead=0;swimlaneBody=0;fontStyle=0;connectable=0;fillColor=#0050ef;startSize=40;collapsible=0;recursiveResize=0;expand=0;labelBackgroundColor=#19141E;strokeColor=#001DBC;fontFamily=Tahoma;fontSize=12;fontColor=#ffffff;html=1;swimlaneFillColor=#19141E;" parent="axYiaLlK4LFOOt4X8vs_-3" vertex="1">
                    <mxGeometry x="880" width="120" height="110" as="geometry">
                        <mxRectangle width="120" height="110" as="alternateBounds"/>
                    </mxGeometry>
                </mxCell>
                <mxCell id="axYiaLlK4LFOOt4X8vs_-12" value="&lt;span style=&quot;font-family: -apple-system, BlinkMacSystemFont, &amp;quot;Segoe UI&amp;quot;, Roboto, &amp;quot;Helvetica Neue&amp;quot;, Arial, &amp;quot;Noto Sans&amp;quot;, sans-serif, &amp;quot;Apple Color Emoji&amp;quot;, &amp;quot;Segoe UI Emoji&amp;quot;, &amp;quot;Segoe UI Symbol&amp;quot;, &amp;quot;Noto Color Emoji&amp;quot;, FontAwesome; font-size: 13px; text-align: start;&quot;&gt;REC_CNT_BY_STATE_CD&lt;/span&gt;" style="swimlane;swimlaneHead=0;swimlaneBody=0;fontStyle=0;connectable=0;fillColor=#0050ef;startSize=40;collapsible=0;recursiveResize=0;expand=0;labelBackgroundColor=#19141E;strokeColor=#001DBC;fontFamily=Tahoma;fontSize=12;fontColor=#ffffff;html=1;swimlaneFillColor=#19141E;" parent="axYiaLlK4LFOOt4X8vs_-3" vertex="1">
                    <mxGeometry x="1000" width="150" height="110" as="geometry">
                        <mxRectangle width="150" height="110" as="alternateBounds"/>
                    </mxGeometry>
                </mxCell>
                <mxCell id="axYiaLlK4LFOOt4X8vs_-13" value="&lt;span style=&quot;font-family: -apple-system, BlinkMacSystemFont, &amp;quot;Segoe UI&amp;quot;, Roboto, &amp;quot;Helvetica Neue&amp;quot;, Arial, &amp;quot;Noto Sans&amp;quot;, sans-serif, &amp;quot;Apple Color Emoji&amp;quot;, &amp;quot;Segoe UI Emoji&amp;quot;, &amp;quot;Segoe UI Symbol&amp;quot;, &amp;quot;Noto Color Emoji&amp;quot;, FontAwesome; font-size: 13px; text-align: start; background-color: rgb(25, 20, 30);&quot;&gt;REC_ADD_TS&lt;/span&gt;" style="swimlane;swimlaneHead=0;swimlaneBody=0;fontStyle=0;connectable=0;fillColor=#0050ef;startSize=40;collapsible=0;recursiveResize=0;expand=0;labelBackgroundColor=default;strokeColor=#001DBC;fontFamily=Tahoma;fontSize=12;fontColor=#ffffff;html=1;swimlaneFillColor=#19141E;" parent="axYiaLlK4LFOOt4X8vs_-3" vertex="1">
                    <mxGeometry x="1150" width="90" height="110" as="geometry">
                        <mxRectangle width="90" height="110" as="alternateBounds"/>
                    </mxGeometry>
                </mxCell>
                <mxCell id="axYiaLlK4LFOOt4X8vs_-14" value="&lt;span style=&quot;font-family: -apple-system, BlinkMacSystemFont, &amp;quot;Segoe UI&amp;quot;, Roboto, &amp;quot;Helvetica Neue&amp;quot;, Arial, &amp;quot;Noto Sans&amp;quot;, sans-serif, &amp;quot;Apple Color Emoji&amp;quot;, &amp;quot;Segoe UI Emoji&amp;quot;, &amp;quot;Segoe UI Symbol&amp;quot;, &amp;quot;Noto Color Emoji&amp;quot;, FontAwesome; font-size: 13px; text-align: start;&quot;&gt;REC_UPDT_TS&lt;/span&gt;" style="swimlane;swimlaneHead=0;swimlaneBody=0;fontStyle=0;connectable=0;fillColor=#0050ef;startSize=40;collapsible=0;recursiveResize=0;expand=0;labelBackgroundColor=#19141E;strokeColor=#001DBC;fontFamily=Tahoma;fontSize=12;fontColor=#ffffff;html=1;swimlaneFillColor=#19141E;" parent="axYiaLlK4LFOOt4X8vs_-3" vertex="1">
                    <mxGeometry x="1240" width="120" height="110" as="geometry">
                        <mxRectangle width="120" height="110" as="alternateBounds"/>
                    </mxGeometry>
                </mxCell>
                <mxCell id="axYiaLlK4LFOOt4X8vs_-15" value="&lt;span style=&quot;font-family: -apple-system, BlinkMacSystemFont, &amp;quot;Segoe UI&amp;quot;, Roboto, &amp;quot;Helvetica Neue&amp;quot;, Arial, &amp;quot;Noto Sans&amp;quot;, sans-serif, &amp;quot;Apple Color Emoji&amp;quot;, &amp;quot;Segoe UI Emoji&amp;quot;, &amp;quot;Segoe UI Symbol&amp;quot;, &amp;quot;Noto Color Emoji&amp;quot;, FontAwesome; font-size: 13px; text-align: start;&quot;&gt;FIL_DT&lt;/span&gt;" style="swimlane;swimlaneHead=0;swimlaneBody=0;fontStyle=0;connectable=0;fillColor=#0050ef;startSize=40;collapsible=0;recursiveResize=0;expand=0;labelBackgroundColor=#19141E;strokeColor=#001DBC;fontFamily=Tahoma;fontSize=12;fontColor=#ffffff;html=1;swimlaneFillColor=#19141E;" parent="axYiaLlK4LFOOt4X8vs_-3" vertex="1">
                    <mxGeometry x="1360" width="80" height="110" as="geometry">
                        <mxRectangle width="80" height="110" as="alternateBounds"/>
                    </mxGeometry>
                </mxCell>
                <mxCell id="axYiaLlK4LFOOt4X8vs_-16" value="&lt;span style=&quot;font-family: -apple-system, BlinkMacSystemFont, &amp;quot;Segoe UI&amp;quot;, Roboto, &amp;quot;Helvetica Neue&amp;quot;, Arial, &amp;quot;Noto Sans&amp;quot;, sans-serif, &amp;quot;Apple Color Emoji&amp;quot;, &amp;quot;Segoe UI Emoji&amp;quot;, &amp;quot;Segoe UI Symbol&amp;quot;, &amp;quot;Noto Color Emoji&amp;quot;, FontAwesome; font-size: 13px; text-align: start;&quot;&gt;TAF_CD_SPEC_VRSN_NAME&lt;/span&gt;" style="swimlane;swimlaneHead=0;swimlaneBody=0;fontStyle=0;connectable=0;fillColor=#0050ef;startSize=40;collapsible=0;recursiveResize=0;expand=0;labelBackgroundColor=#19141E;strokeColor=#001DBC;fontFamily=Tahoma;fontSize=12;fontColor=#ffffff;html=1;swimlaneFillColor=#19141E;" parent="axYiaLlK4LFOOt4X8vs_-3" vertex="1">
                    <mxGeometry x="1440" width="200" height="110" as="geometry">
                        <mxRectangle width="200" height="110" as="alternateBounds"/>
                    </mxGeometry>
                </mxCell>
                <mxCell id="axYiaLlK4LFOOt4X8vs_-17" value="&lt;span style=&quot;font-family: -apple-system, BlinkMacSystemFont, &amp;quot;Segoe UI&amp;quot;, Roboto, &amp;quot;Helvetica Neue&amp;quot;, Arial, &amp;quot;Noto Sans&amp;quot;, sans-serif, &amp;quot;Apple Color Emoji&amp;quot;, &amp;quot;Segoe UI Emoji&amp;quot;, &amp;quot;Segoe UI Symbol&amp;quot;, &amp;quot;Noto Color Emoji&amp;quot;, FontAwesome; font-size: 13px; text-align: start; background-color: rgb(25, 20, 30);&quot;&gt;RFRSH_VW_FLAG&lt;/span&gt;" style="swimlane;swimlaneHead=0;swimlaneBody=0;fontStyle=0;connectable=0;fillColor=#0050ef;startSize=40;collapsible=0;recursiveResize=0;expand=0;labelBackgroundColor=default;strokeColor=#001DBC;fontFamily=Tahoma;fontSize=12;fontColor=#ffffff;html=1;swimlaneFillColor=#19141E;" parent="axYiaLlK4LFOOt4X8vs_-3" vertex="1">
                    <mxGeometry x="1640" width="120" height="110" as="geometry">
                        <mxRectangle width="120" height="110" as="alternateBounds"/>
                    </mxGeometry>
                </mxCell>
                <mxCell id="pkK4yvhUexYtZ6XhbP0I-102" value="&lt;h1 style=&quot;text-rendering: optimizelegibility; font-family: -apple-system, BlinkMacSystemFont, &amp;quot;Segoe UI&amp;quot;, Roboto, &amp;quot;Helvetica Neue&amp;quot;, Arial, &amp;quot;Noto Sans&amp;quot;, sans-serif, &amp;quot;Apple Color Emoji&amp;quot;, &amp;quot;Segoe UI Emoji&amp;quot;, &amp;quot;Segoe UI Symbol&amp;quot;, &amp;quot;Noto Color Emoji&amp;quot;, FontAwesome; font-weight: 200; line-height: 36px; margin: 10px 0px; font-size: 26px; text-align: start;&quot;&gt;&lt;span style=&quot;background-color: rgb(25, 20, 30);&quot;&gt;taf_python.efts_fil_meta&lt;/span&gt;&lt;/h1&gt;" style="shape=table;childLayout=tableLayout;startSize=80;collapsible=0;recursiveResize=0;expand=0;labelBackgroundColor=default;strokeColor=default;fontFamily=Tahoma;fontSize=12;fontColor=#ffffff;fillColor=#0050ef;html=1;" vertex="1" parent="axYiaLlK4LFOOt4X8vs_-17">
                    <mxGeometry x="-1640" y="-80" width="2200" height="190" as="geometry"/>
                </mxCell>
                <mxCell id="pkK4yvhUexYtZ6XhbP0I-103" value="" style="shape=tableRow;horizontal=0;swimlaneHead=0;swimlaneBody=0;top=0;left=0;bottom=0;right=0;dropTarget=0;fontStyle=0;fillColor=none;points=[[0,0.5],[1,0.5]];portConstraint=eastwest;startSize=40;collapsible=0;recursiveResize=0;expand=0;labelBackgroundColor=default;strokeColor=default;fontFamily=Tahoma;fontSize=12;fontColor=#F0F0F0;html=1;" vertex="1" parent="pkK4yvhUexYtZ6XhbP0I-102">
                    <mxGeometry y="80" width="2200" height="110" as="geometry"/>
                </mxCell>
                <mxCell id="pkK4yvhUexYtZ6XhbP0I-104" value="DA_RUN_ID" style="swimlane;swimlaneHead=0;swimlaneBody=0;fontStyle=0;connectable=0;fillColor=none;startSize=40;collapsible=0;recursiveResize=0;expand=0;labelBackgroundColor=default;strokeColor=default;fontFamily=Tahoma;fontSize=12;fontColor=#F0F0F0;html=1;swimlaneFillColor=#19141E;" vertex="1" parent="pkK4yvhUexYtZ6XhbP0I-103">
                    <mxGeometry x="40" width="120" height="110" as="geometry">
                        <mxRectangle width="120" height="110" as="alternateBounds"/>
                    </mxGeometry>
                </mxCell>
                <mxCell id="pkK4yvhUexYtZ6XhbP0I-105" value="FIL_4TH_NODE_TXT" style="swimlane;swimlaneHead=0;swimlaneBody=0;fontStyle=0;connectable=0;fillColor=none;startSize=40;collapsible=0;recursiveResize=0;expand=0;labelBackgroundColor=default;strokeColor=default;fontFamily=Tahoma;fontSize=12;fontColor=#F0F0F0;html=1;swimlaneFillColor=#19141E;" vertex="1" parent="pkK4yvhUexYtZ6XhbP0I-103">
                    <mxGeometry x="160" width="120" height="110" as="geometry">
                        <mxRectangle width="120" height="110" as="alternateBounds"/>
                    </mxGeometry>
                </mxCell>
                <mxCell id="pkK4yvhUexYtZ6XhbP0I-106" value="OTPT_NAME" style="swimlane;swimlaneHead=0;swimlaneBody=0;fontStyle=0;connectable=0;fillColor=none;startSize=40;collapsible=0;recursiveResize=0;expand=0;labelBackgroundColor=default;strokeColor=default;fontFamily=Tahoma;fontSize=12;fontColor=#F0F0F0;html=1;swimlaneFillColor=#19141E;" vertex="1" parent="pkK4yvhUexYtZ6XhbP0I-103">
                    <mxGeometry x="280" width="120" height="110" as="geometry">
                        <mxRectangle width="120" height="110" as="alternateBounds"/>
                    </mxGeometry>
                </mxCell>
                <mxCell id="pkK4yvhUexYtZ6XhbP0I-107" value="RPTG_PRD" style="swimlane;swimlaneHead=0;swimlaneBody=0;fontStyle=0;connectable=0;fillColor=none;startSize=40;collapsible=0;recursiveResize=0;expand=0;labelBackgroundColor=default;strokeColor=default;fontFamily=Tahoma;fontSize=12;fontColor=#F0F0F0;html=1;swimlaneFillColor=#19141E;" vertex="1" parent="pkK4yvhUexYtZ6XhbP0I-103">
                    <mxGeometry x="400" width="120" height="110" as="geometry">
                        <mxRectangle width="120" height="110" as="alternateBounds"/>
                    </mxGeometry>
                </mxCell>
                <mxCell id="pkK4yvhUexYtZ6XhbP0I-108" value="&lt;h1 style=&quot;text-rendering: optimizelegibility; font-family: -apple-system, BlinkMacSystemFont, &amp;quot;Segoe UI&amp;quot;, Roboto, &amp;quot;Helvetica Neue&amp;quot;, Arial, &amp;quot;Noto Sans&amp;quot;, sans-serif, &amp;quot;Apple Color Emoji&amp;quot;, &amp;quot;Segoe UI Emoji&amp;quot;, &amp;quot;Segoe UI Symbol&amp;quot;, &amp;quot;Noto Color Emoji&amp;quot;, FontAwesome; font-weight: 200; line-height: 36px; margin: 10px 0px; font-size: 26px; text-align: start;&quot;&gt;&lt;span style=&quot;background-color: rgb(25, 20, 30);&quot;&gt;taf_python.efts_fil_meta&lt;/span&gt;&lt;/h1&gt;" style="shape=table;childLayout=tableLayout;startSize=80;collapsible=0;recursiveResize=0;expand=0;labelBackgroundColor=default;strokeColor=default;fontFamily=Tahoma;fontSize=12;fontColor=#F0F0F0;fillColor=default;html=1;" vertex="1" parent="pkK4yvhUexYtZ6XhbP0I-107">
                    <mxGeometry x="-400" y="-80" width="2200" height="190" as="geometry"/>
                </mxCell>
                <mxCell id="pkK4yvhUexYtZ6XhbP0I-109" value="" style="shape=tableRow;horizontal=0;swimlaneHead=0;swimlaneBody=0;top=0;left=0;bottom=0;right=0;dropTarget=0;fontStyle=0;fillColor=none;points=[[0,0.5],[1,0.5]];portConstraint=eastwest;startSize=40;collapsible=0;recursiveResize=0;expand=0;labelBackgroundColor=default;strokeColor=default;fontFamily=Tahoma;fontSize=12;fontColor=#F0F0F0;html=1;" vertex="1" parent="pkK4yvhUexYtZ6XhbP0I-108">
                    <mxGeometry y="80" width="2200" height="110" as="geometry"/>
                </mxCell>
                <mxCell id="pkK4yvhUexYtZ6XhbP0I-110" value="DA_RUN_ID" style="swimlane;swimlaneHead=0;swimlaneBody=0;fontStyle=0;connectable=0;fillColor=#0050ef;startSize=40;collapsible=0;recursiveResize=0;expand=0;labelBackgroundColor=default;strokeColor=default;fontFamily=Tahoma;fontSize=12;fontColor=#ffffff;html=1;swimlaneFillColor=#19141E;" vertex="1" parent="pkK4yvhUexYtZ6XhbP0I-109">
                    <mxGeometry x="40" width="120" height="110" as="geometry">
                        <mxRectangle width="120" height="110" as="alternateBounds"/>
                    </mxGeometry>
                </mxCell>
                <mxCell id="pkK4yvhUexYtZ6XhbP0I-111" value="FIL_4TH_NODE_TXT" style="swimlane;swimlaneHead=0;swimlaneBody=0;fontStyle=0;connectable=0;fillColor=#0050ef;startSize=40;collapsible=0;recursiveResize=0;expand=0;labelBackgroundColor=default;strokeColor=default;fontFamily=Tahoma;fontSize=12;fontColor=#ffffff;html=1;swimlaneFillColor=#19141E;" vertex="1" parent="pkK4yvhUexYtZ6XhbP0I-109">
                    <mxGeometry x="160" width="120" height="110" as="geometry">
                        <mxRectangle width="120" height="110" as="alternateBounds"/>
                    </mxGeometry>
                </mxCell>
                <mxCell id="pkK4yvhUexYtZ6XhbP0I-112" value="OTPT_NAME" style="swimlane;swimlaneHead=0;swimlaneBody=0;fontStyle=0;connectable=0;fillColor=#0050ef;startSize=40;collapsible=0;recursiveResize=0;expand=0;labelBackgroundColor=default;strokeColor=default;fontFamily=Tahoma;fontSize=12;fontColor=#ffffff;html=1;swimlaneFillColor=#19141E;" vertex="1" parent="pkK4yvhUexYtZ6XhbP0I-109">
                    <mxGeometry x="280" width="120" height="110" as="geometry">
                        <mxRectangle width="120" height="110" as="alternateBounds"/>
                    </mxGeometry>
                </mxCell>
                <mxCell id="pkK4yvhUexYtZ6XhbP0I-113" value="RPTG_PRD" style="swimlane;swimlaneHead=0;swimlaneBody=0;fontStyle=0;connectable=0;fillColor=#0050ef;startSize=40;collapsible=0;recursiveResize=0;expand=0;labelBackgroundColor=default;strokeColor=default;fontFamily=Tahoma;fontSize=12;fontColor=#ffffff;html=1;swimlaneFillColor=#19141E;" vertex="1" parent="pkK4yvhUexYtZ6XhbP0I-109">
                    <mxGeometry x="400" width="120" height="110" as="geometry">
                        <mxRectangle width="120" height="110" as="alternateBounds"/>
                    </mxGeometry>
                </mxCell>
                <mxCell id="pkK4yvhUexYtZ6XhbP0I-114" value="&lt;span style=&quot;font-family: -apple-system, BlinkMacSystemFont, &amp;quot;Segoe UI&amp;quot;, Roboto, &amp;quot;Helvetica Neue&amp;quot;, Arial, &amp;quot;Noto Sans&amp;quot;, sans-serif, &amp;quot;Apple Color Emoji&amp;quot;, &amp;quot;Segoe UI Emoji&amp;quot;, &amp;quot;Segoe UI Symbol&amp;quot;, &amp;quot;Noto Color Emoji&amp;quot;, FontAwesome; font-size: 13px; font-style: normal; font-variant-ligatures: normal; font-variant-caps: normal; font-weight: 400; letter-spacing: normal; orphans: 2; text-align: start; text-indent: 0px; text-transform: none; widows: 2; word-spacing: 0px; -webkit-text-stroke-width: 0px; text-decoration-thickness: initial; text-decoration-style: initial; text-decoration-color: initial; float: none; display: inline !important; background-color: rgb(25, 20, 30);&quot;&gt;ITRTN_NUM&lt;/span&gt;" style="swimlane;swimlaneHead=0;swimlaneBody=0;fontStyle=0;connectable=0;fillColor=none;startSize=40;collapsible=0;recursiveResize=0;expand=0;labelBackgroundColor=default;strokeColor=default;fontFamily=Tahoma;fontSize=12;fontColor=#F0F0F0;html=1;swimlaneFillColor=#19141E;" vertex="1" parent="pkK4yvhUexYtZ6XhbP0I-109">
                    <mxGeometry x="520" width="120" height="110" as="geometry">
                        <mxRectangle width="120" height="110" as="alternateBounds"/>
                    </mxGeometry>
                </mxCell>
                <mxCell id="pkK4yvhUexYtZ6XhbP0I-115" value="&lt;span style=&quot;font-size: 13px; text-align: start; background-color: rgb(25, 20, 30);&quot;&gt;&lt;font style=&quot;&quot; face=&quot;-apple-system, BlinkMacSystemFont, Segoe UI, Roboto, Helvetica Neue, Arial, Noto Sans, sans-serif, Apple Color Emoji, Segoe UI Emoji, Segoe UI Symbol, Noto Color Emoji, FontAwesome&quot;&gt;TOT_REC_CNT&lt;/font&gt;&lt;/span&gt;" style="swimlane;swimlaneHead=0;swimlaneBody=0;fontStyle=0;connectable=0;fillColor=none;startSize=40;collapsible=0;recursiveResize=0;expand=0;labelBackgroundColor=default;strokeColor=default;fontFamily=Tahoma;fontSize=12;fontColor=#F0F0F0;html=1;swimlaneFillColor=#19141E;" vertex="1" parent="pkK4yvhUexYtZ6XhbP0I-109">
                    <mxGeometry x="640" width="120" height="110" as="geometry">
                        <mxRectangle width="120" height="110" as="alternateBounds"/>
                    </mxGeometry>
                </mxCell>
                <mxCell id="pkK4yvhUexYtZ6XhbP0I-116" value="&lt;span style=&quot;font-family: -apple-system, BlinkMacSystemFont, &amp;quot;Segoe UI&amp;quot;, Roboto, &amp;quot;Helvetica Neue&amp;quot;, Arial, &amp;quot;Noto Sans&amp;quot;, sans-serif, &amp;quot;Apple Color Emoji&amp;quot;, &amp;quot;Segoe UI Emoji&amp;quot;, &amp;quot;Segoe UI Symbol&amp;quot;, &amp;quot;Noto Color Emoji&amp;quot;, FontAwesome; font-size: 13px; text-align: start; background-color: rgb(25, 20, 30);&quot;&gt;FIL_CRET_DT&lt;/span&gt;" style="swimlane;swimlaneHead=0;swimlaneBody=0;fontStyle=0;connectable=0;fillColor=none;startSize=40;collapsible=0;recursiveResize=0;expand=0;labelBackgroundColor=default;strokeColor=default;fontFamily=Tahoma;fontSize=12;fontColor=#F0F0F0;html=1;swimlaneFillColor=#19141E;" vertex="1" parent="pkK4yvhUexYtZ6XhbP0I-109">
                    <mxGeometry x="760" width="120" height="110" as="geometry">
                        <mxRectangle width="120" height="110" as="alternateBounds"/>
                    </mxGeometry>
                </mxCell>
                <mxCell id="pkK4yvhUexYtZ6XhbP0I-117" value="&lt;span style=&quot;font-family: -apple-system, BlinkMacSystemFont, &amp;quot;Segoe UI&amp;quot;, Roboto, &amp;quot;Helvetica Neue&amp;quot;, Arial, &amp;quot;Noto Sans&amp;quot;, sans-serif, &amp;quot;Apple Color Emoji&amp;quot;, &amp;quot;Segoe UI Emoji&amp;quot;, &amp;quot;Segoe UI Symbol&amp;quot;, &amp;quot;Noto Color Emoji&amp;quot;, FontAwesome; font-size: 13px; text-align: start;&quot;&gt;INCLDD_STATE_CD&lt;/span&gt;" style="swimlane;swimlaneHead=0;swimlaneBody=0;fontStyle=0;connectable=0;fillColor=none;startSize=40;collapsible=0;recursiveResize=0;expand=0;labelBackgroundColor=#19141E;strokeColor=default;fontFamily=Tahoma;fontSize=12;fontColor=#F0F0F0;html=1;swimlaneFillColor=#19141E;" vertex="1" parent="pkK4yvhUexYtZ6XhbP0I-109">
                    <mxGeometry x="880" width="120" height="110" as="geometry">
                        <mxRectangle width="120" height="110" as="alternateBounds"/>
                    </mxGeometry>
                </mxCell>
                <mxCell id="pkK4yvhUexYtZ6XhbP0I-118" value="&lt;span style=&quot;font-family: -apple-system, BlinkMacSystemFont, &amp;quot;Segoe UI&amp;quot;, Roboto, &amp;quot;Helvetica Neue&amp;quot;, Arial, &amp;quot;Noto Sans&amp;quot;, sans-serif, &amp;quot;Apple Color Emoji&amp;quot;, &amp;quot;Segoe UI Emoji&amp;quot;, &amp;quot;Segoe UI Symbol&amp;quot;, &amp;quot;Noto Color Emoji&amp;quot;, FontAwesome; font-size: 13px; text-align: start;&quot;&gt;REC_CNT_BY_STATE_CD&lt;/span&gt;" style="swimlane;swimlaneHead=0;swimlaneBody=0;fontStyle=0;connectable=0;fillColor=#0050ef;startSize=40;collapsible=0;recursiveResize=0;expand=0;labelBackgroundColor=#19141E;strokeColor=#001DBC;fontFamily=Tahoma;fontSize=12;fontColor=#ffffff;html=1;swimlaneFillColor=#19141E;" vertex="1" parent="pkK4yvhUexYtZ6XhbP0I-109">
                    <mxGeometry x="1000" width="150" height="110" as="geometry">
                        <mxRectangle width="150" height="110" as="alternateBounds"/>
                    </mxGeometry>
                </mxCell>
                <mxCell id="pkK4yvhUexYtZ6XhbP0I-119" value="&lt;span style=&quot;font-family: -apple-system, BlinkMacSystemFont, &amp;quot;Segoe UI&amp;quot;, Roboto, &amp;quot;Helvetica Neue&amp;quot;, Arial, &amp;quot;Noto Sans&amp;quot;, sans-serif, &amp;quot;Apple Color Emoji&amp;quot;, &amp;quot;Segoe UI Emoji&amp;quot;, &amp;quot;Segoe UI Symbol&amp;quot;, &amp;quot;Noto Color Emoji&amp;quot;, FontAwesome; font-size: 13px; text-align: start; background-color: rgb(25, 20, 30);&quot;&gt;REC_ADD_TS&lt;/span&gt;" style="swimlane;swimlaneHead=0;swimlaneBody=0;fontStyle=0;connectable=0;fillColor=#0050ef;startSize=40;collapsible=0;recursiveResize=0;expand=0;labelBackgroundColor=default;strokeColor=#001DBC;fontFamily=Tahoma;fontSize=12;fontColor=#ffffff;html=1;swimlaneFillColor=#19141E;" vertex="1" parent="pkK4yvhUexYtZ6XhbP0I-109">
                    <mxGeometry x="1150" width="90" height="110" as="geometry">
                        <mxRectangle width="90" height="110" as="alternateBounds"/>
                    </mxGeometry>
                </mxCell>
                <mxCell id="pkK4yvhUexYtZ6XhbP0I-120" value="&lt;span style=&quot;font-family: -apple-system, BlinkMacSystemFont, &amp;quot;Segoe UI&amp;quot;, Roboto, &amp;quot;Helvetica Neue&amp;quot;, Arial, &amp;quot;Noto Sans&amp;quot;, sans-serif, &amp;quot;Apple Color Emoji&amp;quot;, &amp;quot;Segoe UI Emoji&amp;quot;, &amp;quot;Segoe UI Symbol&amp;quot;, &amp;quot;Noto Color Emoji&amp;quot;, FontAwesome; font-size: 13px; text-align: start;&quot;&gt;REC_UPDT_TS&lt;/span&gt;" style="swimlane;swimlaneHead=0;swimlaneBody=0;fontStyle=0;connectable=0;fillColor=#0050ef;startSize=40;collapsible=0;recursiveResize=0;expand=0;labelBackgroundColor=#19141E;strokeColor=#001DBC;fontFamily=Tahoma;fontSize=12;fontColor=#ffffff;html=1;swimlaneFillColor=#19141E;" vertex="1" parent="pkK4yvhUexYtZ6XhbP0I-109">
                    <mxGeometry x="1240" width="120" height="110" as="geometry">
                        <mxRectangle width="120" height="110" as="alternateBounds"/>
                    </mxGeometry>
                </mxCell>
                <mxCell id="pkK4yvhUexYtZ6XhbP0I-121" value="&lt;span style=&quot;font-family: -apple-system, BlinkMacSystemFont, &amp;quot;Segoe UI&amp;quot;, Roboto, &amp;quot;Helvetica Neue&amp;quot;, Arial, &amp;quot;Noto Sans&amp;quot;, sans-serif, &amp;quot;Apple Color Emoji&amp;quot;, &amp;quot;Segoe UI Emoji&amp;quot;, &amp;quot;Segoe UI Symbol&amp;quot;, &amp;quot;Noto Color Emoji&amp;quot;, FontAwesome; font-size: 13px; text-align: start;&quot;&gt;FIL_DT&lt;/span&gt;" style="swimlane;swimlaneHead=0;swimlaneBody=0;fontStyle=0;connectable=0;fillColor=#0050ef;startSize=40;collapsible=0;recursiveResize=0;expand=0;labelBackgroundColor=#19141E;strokeColor=#001DBC;fontFamily=Tahoma;fontSize=12;fontColor=#ffffff;html=1;swimlaneFillColor=#19141E;" vertex="1" parent="pkK4yvhUexYtZ6XhbP0I-109">
                    <mxGeometry x="1360" width="80" height="110" as="geometry">
                        <mxRectangle width="80" height="110" as="alternateBounds"/>
                    </mxGeometry>
                </mxCell>
                <mxCell id="pkK4yvhUexYtZ6XhbP0I-122" value="&lt;span style=&quot;font-family: -apple-system, BlinkMacSystemFont, &amp;quot;Segoe UI&amp;quot;, Roboto, &amp;quot;Helvetica Neue&amp;quot;, Arial, &amp;quot;Noto Sans&amp;quot;, sans-serif, &amp;quot;Apple Color Emoji&amp;quot;, &amp;quot;Segoe UI Emoji&amp;quot;, &amp;quot;Segoe UI Symbol&amp;quot;, &amp;quot;Noto Color Emoji&amp;quot;, FontAwesome; font-size: 13px; text-align: start;&quot;&gt;TAF_CD_SPEC_VRSN_NAME&lt;/span&gt;" style="swimlane;swimlaneHead=0;swimlaneBody=0;fontStyle=0;connectable=0;fillColor=#0050ef;startSize=40;collapsible=0;recursiveResize=0;expand=0;labelBackgroundColor=#19141E;strokeColor=#001DBC;fontFamily=Tahoma;fontSize=12;fontColor=#ffffff;html=1;swimlaneFillColor=#19141E;" vertex="1" parent="pkK4yvhUexYtZ6XhbP0I-109">
                    <mxGeometry x="1440" width="200" height="110" as="geometry">
                        <mxRectangle width="200" height="110" as="alternateBounds"/>
                    </mxGeometry>
                </mxCell>
                <mxCell id="pkK4yvhUexYtZ6XhbP0I-123" value="&lt;span style=&quot;font-family: -apple-system, BlinkMacSystemFont, &amp;quot;Segoe UI&amp;quot;, Roboto, &amp;quot;Helvetica Neue&amp;quot;, Arial, &amp;quot;Noto Sans&amp;quot;, sans-serif, &amp;quot;Apple Color Emoji&amp;quot;, &amp;quot;Segoe UI Emoji&amp;quot;, &amp;quot;Segoe UI Symbol&amp;quot;, &amp;quot;Noto Color Emoji&amp;quot;, FontAwesome; font-size: 13px; text-align: start; background-color: rgb(25, 20, 30);&quot;&gt;RFRSH_VW_FLAG&lt;/span&gt;" style="swimlane;swimlaneHead=0;swimlaneBody=0;fontStyle=0;connectable=0;fillColor=#0050ef;startSize=40;collapsible=0;recursiveResize=0;expand=0;labelBackgroundColor=default;strokeColor=#001DBC;fontFamily=Tahoma;fontSize=12;fontColor=#ffffff;html=1;swimlaneFillColor=#19141E;" vertex="1" parent="pkK4yvhUexYtZ6XhbP0I-109">
                    <mxGeometry x="1640" width="120" height="110" as="geometry">
                        <mxRectangle width="120" height="110" as="alternateBounds"/>
                    </mxGeometry>
                </mxCell>
                <mxCell id="pkK4yvhUexYtZ6XhbP0I-124" value="&lt;span style=&quot;font-family: -apple-system, BlinkMacSystemFont, &amp;quot;Segoe UI&amp;quot;, Roboto, &amp;quot;Helvetica Neue&amp;quot;, Arial, &amp;quot;Noto Sans&amp;quot;, sans-serif, &amp;quot;Apple Color Emoji&amp;quot;, &amp;quot;Segoe UI Emoji&amp;quot;, &amp;quot;Segoe UI Symbol&amp;quot;, &amp;quot;Noto Color Emoji&amp;quot;, FontAwesome; font-size: 13px; text-align: start;&quot;&gt;LTST_RUN_IND&lt;/span&gt;" style="swimlane;swimlaneHead=0;swimlaneBody=0;fontStyle=0;connectable=0;fillColor=#0050ef;startSize=40;collapsible=0;recursiveResize=0;expand=0;labelBackgroundColor=default;strokeColor=#001DBC;fontFamily=Tahoma;fontSize=12;fontColor=#ffffff;html=1;swimlaneFillColor=#19141E;" vertex="1" parent="pkK4yvhUexYtZ6XhbP0I-109">
                    <mxGeometry x="1760" width="100" height="110" as="geometry">
                        <mxRectangle width="100" height="110" as="alternateBounds"/>
                    </mxGeometry>
                </mxCell>
                <mxCell id="pkK4yvhUexYtZ6XhbP0I-125" value="&lt;span style=&quot;font-family: -apple-system, BlinkMacSystemFont, &amp;quot;Segoe UI&amp;quot;, Roboto, &amp;quot;Helvetica Neue&amp;quot;, Arial, &amp;quot;Noto Sans&amp;quot;, sans-serif, &amp;quot;Apple Color Emoji&amp;quot;, &amp;quot;Segoe UI Emoji&amp;quot;, &amp;quot;Segoe UI Symbol&amp;quot;, &amp;quot;Noto Color Emoji&amp;quot;, FontAwesome; font-size: 13px; text-align: start;&quot;&gt;CCB_QTR&lt;/span&gt;" style="swimlane;swimlaneHead=0;swimlaneBody=0;fontStyle=0;connectable=0;fillColor=#0050ef;startSize=40;collapsible=0;recursiveResize=0;expand=0;labelBackgroundColor=#19141E;strokeColor=#001DBC;fontFamily=Tahoma;fontSize=12;fontColor=#ffffff;html=1;swimlaneFillColor=#19141E;" vertex="1" parent="pkK4yvhUexYtZ6XhbP0I-109">
                    <mxGeometry x="1860" width="100" height="110" as="geometry">
                        <mxRectangle width="100" height="110" as="alternateBounds"/>
                    </mxGeometry>
                </mxCell>
                <mxCell id="pkK4yvhUexYtZ6XhbP0I-126" value="&lt;span style=&quot;font-family: -apple-system, BlinkMacSystemFont, &amp;quot;Segoe UI&amp;quot;, Roboto, &amp;quot;Helvetica Neue&amp;quot;, Arial, &amp;quot;Noto Sans&amp;quot;, sans-serif, &amp;quot;Apple Color Emoji&amp;quot;, &amp;quot;Segoe UI Emoji&amp;quot;, &amp;quot;Segoe UI Symbol&amp;quot;, &amp;quot;Noto Color Emoji&amp;quot;, FontAwesome; font-size: 13px; text-align: start;&quot;&gt;RIF_FINL_VRSN&lt;/span&gt;" style="swimlane;swimlaneHead=0;swimlaneBody=0;fontStyle=0;connectable=0;fillColor=#0050ef;startSize=40;collapsible=0;recursiveResize=0;expand=0;labelBackgroundColor=#19141E;strokeColor=#001DBC;fontFamily=Tahoma;fontSize=12;fontColor=#ffffff;html=1;swimlaneFillColor=#19141E;" vertex="1" parent="pkK4yvhUexYtZ6XhbP0I-109">
                    <mxGeometry x="1960" width="120" height="110" as="geometry">
                        <mxRectangle width="120" height="110" as="alternateBounds"/>
                    </mxGeometry>
                </mxCell>
                <mxCell id="pkK4yvhUexYtZ6XhbP0I-127" value="&lt;span style=&quot;font-family: -apple-system, BlinkMacSystemFont, &amp;quot;Segoe UI&amp;quot;, Roboto, &amp;quot;Helvetica Neue&amp;quot;, Arial, &amp;quot;Noto Sans&amp;quot;, sans-serif, &amp;quot;Apple Color Emoji&amp;quot;, &amp;quot;Segoe UI Emoji&amp;quot;, &amp;quot;Segoe UI Symbol&amp;quot;, &amp;quot;Noto Color Emoji&amp;quot;, FontAwesome; font-size: 13px; text-align: start;&quot;&gt;RIF_PRELIM_VRSN&lt;/span&gt;" style="swimlane;swimlaneHead=0;swimlaneBody=0;fontStyle=0;connectable=0;fillColor=#0050ef;startSize=40;collapsible=0;recursiveResize=0;expand=0;labelBackgroundColor=#19141E;strokeColor=#001DBC;fontFamily=Tahoma;fontSize=12;fontColor=#ffffff;html=1;swimlaneFillColor=#19141E;" vertex="1" parent="pkK4yvhUexYtZ6XhbP0I-109">
                    <mxGeometry x="2080" width="120" height="110" as="geometry">
                        <mxRectangle width="120" height="110" as="alternateBounds"/>
                    </mxGeometry>
                </mxCell>
                <mxCell id="pkK4yvhUexYtZ6XhbP0I-128" value="&lt;span style=&quot;font-family: -apple-system, BlinkMacSystemFont, &amp;quot;Segoe UI&amp;quot;, Roboto, &amp;quot;Helvetica Neue&amp;quot;, Arial, &amp;quot;Noto Sans&amp;quot;, sans-serif, &amp;quot;Apple Color Emoji&amp;quot;, &amp;quot;Segoe UI Emoji&amp;quot;, &amp;quot;Segoe UI Symbol&amp;quot;, &amp;quot;Noto Color Emoji&amp;quot;, FontAwesome; font-size: 13px; font-style: normal; font-variant-ligatures: normal; font-variant-caps: normal; font-weight: 400; letter-spacing: normal; orphans: 2; text-align: start; text-indent: 0px; text-transform: none; widows: 2; word-spacing: 0px; -webkit-text-stroke-width: 0px; text-decoration-thickness: initial; text-decoration-style: initial; text-decoration-color: initial; float: none; display: inline !important; background-color: rgb(25, 20, 30);&quot;&gt;ITRTN_NUM&lt;/span&gt;" style="swimlane;swimlaneHead=0;swimlaneBody=0;fontStyle=0;connectable=0;fillColor=#0050ef;startSize=40;collapsible=0;recursiveResize=0;expand=0;labelBackgroundColor=default;strokeColor=default;fontFamily=Tahoma;fontSize=12;fontColor=#ffffff;html=1;swimlaneFillColor=#19141E;" vertex="1" parent="pkK4yvhUexYtZ6XhbP0I-103">
                    <mxGeometry x="520" width="120" height="110" as="geometry">
                        <mxRectangle width="120" height="110" as="alternateBounds"/>
                    </mxGeometry>
                </mxCell>
                <mxCell id="pkK4yvhUexYtZ6XhbP0I-129" value="&lt;span style=&quot;font-size: 13px; text-align: start; background-color: rgb(25, 20, 30);&quot;&gt;&lt;font style=&quot;&quot; face=&quot;-apple-system, BlinkMacSystemFont, Segoe UI, Roboto, Helvetica Neue, Arial, Noto Sans, sans-serif, Apple Color Emoji, Segoe UI Emoji, Segoe UI Symbol, Noto Color Emoji, FontAwesome&quot;&gt;TOT_REC_CNT&lt;/font&gt;&lt;/span&gt;" style="swimlane;swimlaneHead=0;swimlaneBody=0;fontStyle=0;connectable=0;fillColor=#0050ef;startSize=40;collapsible=0;recursiveResize=0;expand=0;labelBackgroundColor=default;strokeColor=default;fontFamily=Tahoma;fontSize=12;fontColor=#ffffff;html=1;swimlaneFillColor=#19141E;" vertex="1" parent="pkK4yvhUexYtZ6XhbP0I-103">
                    <mxGeometry x="640" width="120" height="110" as="geometry">
                        <mxRectangle width="120" height="110" as="alternateBounds"/>
                    </mxGeometry>
                </mxCell>
                <mxCell id="pkK4yvhUexYtZ6XhbP0I-130" value="&lt;span style=&quot;font-family: -apple-system, BlinkMacSystemFont, &amp;quot;Segoe UI&amp;quot;, Roboto, &amp;quot;Helvetica Neue&amp;quot;, Arial, &amp;quot;Noto Sans&amp;quot;, sans-serif, &amp;quot;Apple Color Emoji&amp;quot;, &amp;quot;Segoe UI Emoji&amp;quot;, &amp;quot;Segoe UI Symbol&amp;quot;, &amp;quot;Noto Color Emoji&amp;quot;, FontAwesome; font-size: 13px; text-align: start; background-color: rgb(25, 20, 30);&quot;&gt;FIL_CRET_DT&lt;/span&gt;" style="swimlane;swimlaneHead=0;swimlaneBody=0;fontStyle=0;connectable=0;fillColor=#0050ef;startSize=40;collapsible=0;recursiveResize=0;expand=0;labelBackgroundColor=default;strokeColor=default;fontFamily=Tahoma;fontSize=12;fontColor=#ffffff;html=1;swimlaneFillColor=#19141E;" vertex="1" parent="pkK4yvhUexYtZ6XhbP0I-103">
                    <mxGeometry x="760" width="120" height="110" as="geometry">
                        <mxRectangle width="120" height="110" as="alternateBounds"/>
                    </mxGeometry>
                </mxCell>
                <mxCell id="pkK4yvhUexYtZ6XhbP0I-131" value="&lt;span style=&quot;font-family: -apple-system, BlinkMacSystemFont, &amp;quot;Segoe UI&amp;quot;, Roboto, &amp;quot;Helvetica Neue&amp;quot;, Arial, &amp;quot;Noto Sans&amp;quot;, sans-serif, &amp;quot;Apple Color Emoji&amp;quot;, &amp;quot;Segoe UI Emoji&amp;quot;, &amp;quot;Segoe UI Symbol&amp;quot;, &amp;quot;Noto Color Emoji&amp;quot;, FontAwesome; font-size: 13px; text-align: start;&quot;&gt;INCLDD_STATE_CD&lt;/span&gt;" style="swimlane;swimlaneHead=0;swimlaneBody=0;fontStyle=0;connectable=0;fillColor=#0050ef;startSize=40;collapsible=0;recursiveResize=0;expand=0;labelBackgroundColor=#19141E;strokeColor=default;fontFamily=Tahoma;fontSize=12;fontColor=#ffffff;html=1;swimlaneFillColor=#19141E;" vertex="1" parent="pkK4yvhUexYtZ6XhbP0I-103">
                    <mxGeometry x="880" width="120" height="110" as="geometry">
                        <mxRectangle width="120" height="110" as="alternateBounds"/>
                    </mxGeometry>
                </mxCell>
                <mxCell id="pkK4yvhUexYtZ6XhbP0I-132" value="&lt;span style=&quot;font-family: -apple-system, BlinkMacSystemFont, &amp;quot;Segoe UI&amp;quot;, Roboto, &amp;quot;Helvetica Neue&amp;quot;, Arial, &amp;quot;Noto Sans&amp;quot;, sans-serif, &amp;quot;Apple Color Emoji&amp;quot;, &amp;quot;Segoe UI Emoji&amp;quot;, &amp;quot;Segoe UI Symbol&amp;quot;, &amp;quot;Noto Color Emoji&amp;quot;, FontAwesome; font-size: 13px; text-align: start;&quot;&gt;REC_CNT_BY_STATE_CD&lt;/span&gt;" style="swimlane;swimlaneHead=0;swimlaneBody=0;fontStyle=0;connectable=0;fillColor=#0050ef;startSize=40;collapsible=0;recursiveResize=0;expand=0;labelBackgroundColor=#19141E;strokeColor=default;fontFamily=Tahoma;fontSize=12;fontColor=#ffffff;html=1;swimlaneFillColor=#19141E;" vertex="1" parent="pkK4yvhUexYtZ6XhbP0I-103">
                    <mxGeometry x="1000" width="150" height="110" as="geometry">
                        <mxRectangle width="150" height="110" as="alternateBounds"/>
                    </mxGeometry>
                </mxCell>
                <mxCell id="pkK4yvhUexYtZ6XhbP0I-133" value="&lt;span style=&quot;font-family: -apple-system, BlinkMacSystemFont, &amp;quot;Segoe UI&amp;quot;, Roboto, &amp;quot;Helvetica Neue&amp;quot;, Arial, &amp;quot;Noto Sans&amp;quot;, sans-serif, &amp;quot;Apple Color Emoji&amp;quot;, &amp;quot;Segoe UI Emoji&amp;quot;, &amp;quot;Segoe UI Symbol&amp;quot;, &amp;quot;Noto Color Emoji&amp;quot;, FontAwesome; font-size: 13px; text-align: start; background-color: rgb(25, 20, 30);&quot;&gt;REC_ADD_TS&lt;/span&gt;" style="swimlane;swimlaneHead=0;swimlaneBody=0;fontStyle=0;connectable=0;fillColor=#0050ef;startSize=40;collapsible=0;recursiveResize=0;expand=0;labelBackgroundColor=default;strokeColor=default;fontFamily=Tahoma;fontSize=12;fontColor=#ffffff;html=1;swimlaneFillColor=#19141E;" vertex="1" parent="pkK4yvhUexYtZ6XhbP0I-103">
                    <mxGeometry x="1150" width="90" height="110" as="geometry">
                        <mxRectangle width="90" height="110" as="alternateBounds"/>
                    </mxGeometry>
                </mxCell>
                <mxCell id="pkK4yvhUexYtZ6XhbP0I-134" value="&lt;span style=&quot;font-family: -apple-system, BlinkMacSystemFont, &amp;quot;Segoe UI&amp;quot;, Roboto, &amp;quot;Helvetica Neue&amp;quot;, Arial, &amp;quot;Noto Sans&amp;quot;, sans-serif, &amp;quot;Apple Color Emoji&amp;quot;, &amp;quot;Segoe UI Emoji&amp;quot;, &amp;quot;Segoe UI Symbol&amp;quot;, &amp;quot;Noto Color Emoji&amp;quot;, FontAwesome; font-size: 13px; text-align: start;&quot;&gt;REC_UPDT_TS&lt;/span&gt;" style="swimlane;swimlaneHead=0;swimlaneBody=0;fontStyle=0;connectable=0;fillColor=#0050ef;startSize=40;collapsible=0;recursiveResize=0;expand=0;labelBackgroundColor=#19141E;strokeColor=default;fontFamily=Tahoma;fontSize=12;fontColor=#ffffff;html=1;swimlaneFillColor=#19141E;" vertex="1" parent="pkK4yvhUexYtZ6XhbP0I-103">
                    <mxGeometry x="1240" width="120" height="110" as="geometry">
                        <mxRectangle width="120" height="110" as="alternateBounds"/>
                    </mxGeometry>
                </mxCell>
                <mxCell id="pkK4yvhUexYtZ6XhbP0I-135" value="&lt;span style=&quot;font-family: -apple-system, BlinkMacSystemFont, &amp;quot;Segoe UI&amp;quot;, Roboto, &amp;quot;Helvetica Neue&amp;quot;, Arial, &amp;quot;Noto Sans&amp;quot;, sans-serif, &amp;quot;Apple Color Emoji&amp;quot;, &amp;quot;Segoe UI Emoji&amp;quot;, &amp;quot;Segoe UI Symbol&amp;quot;, &amp;quot;Noto Color Emoji&amp;quot;, FontAwesome; font-size: 13px; text-align: start;&quot;&gt;FIL_DT&lt;/span&gt;" style="swimlane;swimlaneHead=0;swimlaneBody=0;fontStyle=0;connectable=0;fillColor=#0050ef;startSize=40;collapsible=0;recursiveResize=0;expand=0;labelBackgroundColor=#19141E;strokeColor=default;fontFamily=Tahoma;fontSize=12;fontColor=#ffffff;html=1;swimlaneFillColor=#19141E;" vertex="1" parent="pkK4yvhUexYtZ6XhbP0I-103">
                    <mxGeometry x="1360" width="80" height="110" as="geometry">
                        <mxRectangle width="80" height="110" as="alternateBounds"/>
                    </mxGeometry>
                </mxCell>
                <mxCell id="pkK4yvhUexYtZ6XhbP0I-136" value="&lt;span style=&quot;font-family: -apple-system, BlinkMacSystemFont, &amp;quot;Segoe UI&amp;quot;, Roboto, &amp;quot;Helvetica Neue&amp;quot;, Arial, &amp;quot;Noto Sans&amp;quot;, sans-serif, &amp;quot;Apple Color Emoji&amp;quot;, &amp;quot;Segoe UI Emoji&amp;quot;, &amp;quot;Segoe UI Symbol&amp;quot;, &amp;quot;Noto Color Emoji&amp;quot;, FontAwesome; font-size: 13px; text-align: start;&quot;&gt;TAF_CD_SPEC_VRSN_NAME&lt;/span&gt;" style="swimlane;swimlaneHead=0;swimlaneBody=0;fontStyle=0;connectable=0;fillColor=#0050ef;startSize=40;collapsible=0;recursiveResize=0;expand=0;labelBackgroundColor=#19141E;strokeColor=default;fontFamily=Tahoma;fontSize=12;fontColor=#ffffff;html=1;swimlaneFillColor=#19141E;" vertex="1" parent="pkK4yvhUexYtZ6XhbP0I-103">
                    <mxGeometry x="1440" width="200" height="110" as="geometry">
                        <mxRectangle width="200" height="110" as="alternateBounds"/>
                    </mxGeometry>
                </mxCell>
                <mxCell id="pkK4yvhUexYtZ6XhbP0I-137" value="&lt;span style=&quot;font-family: -apple-system, BlinkMacSystemFont, &amp;quot;Segoe UI&amp;quot;, Roboto, &amp;quot;Helvetica Neue&amp;quot;, Arial, &amp;quot;Noto Sans&amp;quot;, sans-serif, &amp;quot;Apple Color Emoji&amp;quot;, &amp;quot;Segoe UI Emoji&amp;quot;, &amp;quot;Segoe UI Symbol&amp;quot;, &amp;quot;Noto Color Emoji&amp;quot;, FontAwesome; font-size: 13px; text-align: start; background-color: rgb(25, 20, 30);&quot;&gt;RFRSH_VW_FLAG&lt;/span&gt;" style="swimlane;swimlaneHead=0;swimlaneBody=0;fontStyle=0;connectable=0;fillColor=#0050ef;startSize=40;collapsible=0;recursiveResize=0;expand=0;labelBackgroundColor=default;strokeColor=default;fontFamily=Tahoma;fontSize=12;fontColor=#ffffff;html=1;swimlaneFillColor=#19141E;" vertex="1" parent="pkK4yvhUexYtZ6XhbP0I-103">
                    <mxGeometry x="1640" width="120" height="110" as="geometry">
                        <mxRectangle width="120" height="110" as="alternateBounds"/>
                    </mxGeometry>
                </mxCell>
                <mxCell id="pkK4yvhUexYtZ6XhbP0I-138" value="&lt;span style=&quot;font-family: -apple-system, BlinkMacSystemFont, &amp;quot;Segoe UI&amp;quot;, Roboto, &amp;quot;Helvetica Neue&amp;quot;, Arial, &amp;quot;Noto Sans&amp;quot;, sans-serif, &amp;quot;Apple Color Emoji&amp;quot;, &amp;quot;Segoe UI Emoji&amp;quot;, &amp;quot;Segoe UI Symbol&amp;quot;, &amp;quot;Noto Color Emoji&amp;quot;, FontAwesome; font-size: 13px; text-align: start;&quot;&gt;LTST_RUN_IND&lt;/span&gt;" style="swimlane;swimlaneHead=0;swimlaneBody=0;fontStyle=0;connectable=0;fillColor=#0050ef;startSize=40;collapsible=0;recursiveResize=0;expand=0;labelBackgroundColor=default;strokeColor=#001DBC;fontFamily=Tahoma;fontSize=12;fontColor=#ffffff;html=1;swimlaneFillColor=#19141E;" vertex="1" parent="pkK4yvhUexYtZ6XhbP0I-103">
                    <mxGeometry x="1760" width="100" height="110" as="geometry">
                        <mxRectangle width="100" height="110" as="alternateBounds"/>
                    </mxGeometry>
                </mxCell>
                <mxCell id="pkK4yvhUexYtZ6XhbP0I-139" value="&lt;span style=&quot;font-family: -apple-system, BlinkMacSystemFont, &amp;quot;Segoe UI&amp;quot;, Roboto, &amp;quot;Helvetica Neue&amp;quot;, Arial, &amp;quot;Noto Sans&amp;quot;, sans-serif, &amp;quot;Apple Color Emoji&amp;quot;, &amp;quot;Segoe UI Emoji&amp;quot;, &amp;quot;Segoe UI Symbol&amp;quot;, &amp;quot;Noto Color Emoji&amp;quot;, FontAwesome; font-size: 13px; text-align: start;&quot;&gt;CCB_QTR&lt;/span&gt;" style="swimlane;swimlaneHead=0;swimlaneBody=0;fontStyle=0;connectable=0;fillColor=#0050ef;startSize=40;collapsible=0;recursiveResize=0;expand=0;labelBackgroundColor=#19141E;strokeColor=#001DBC;fontFamily=Tahoma;fontSize=12;fontColor=#ffffff;html=1;swimlaneFillColor=#19141E;" vertex="1" parent="pkK4yvhUexYtZ6XhbP0I-103">
                    <mxGeometry x="1860" width="100" height="110" as="geometry">
                        <mxRectangle width="100" height="110" as="alternateBounds"/>
                    </mxGeometry>
                </mxCell>
                <mxCell id="pkK4yvhUexYtZ6XhbP0I-140" value="&lt;span style=&quot;font-family: -apple-system, BlinkMacSystemFont, &amp;quot;Segoe UI&amp;quot;, Roboto, &amp;quot;Helvetica Neue&amp;quot;, Arial, &amp;quot;Noto Sans&amp;quot;, sans-serif, &amp;quot;Apple Color Emoji&amp;quot;, &amp;quot;Segoe UI Emoji&amp;quot;, &amp;quot;Segoe UI Symbol&amp;quot;, &amp;quot;Noto Color Emoji&amp;quot;, FontAwesome; font-size: 13px; text-align: start;&quot;&gt;RIF_FINL_VRSN&lt;/span&gt;" style="swimlane;swimlaneHead=0;swimlaneBody=0;fontStyle=0;connectable=0;fillColor=#0050ef;startSize=40;collapsible=0;recursiveResize=0;expand=0;labelBackgroundColor=#19141E;strokeColor=#001DBC;fontFamily=Tahoma;fontSize=12;fontColor=#ffffff;html=1;swimlaneFillColor=#19141E;" vertex="1" parent="pkK4yvhUexYtZ6XhbP0I-103">
                    <mxGeometry x="1960" width="120" height="110" as="geometry">
                        <mxRectangle width="120" height="110" as="alternateBounds"/>
                    </mxGeometry>
                </mxCell>
                <mxCell id="pkK4yvhUexYtZ6XhbP0I-141" value="&lt;span style=&quot;font-family: -apple-system, BlinkMacSystemFont, &amp;quot;Segoe UI&amp;quot;, Roboto, &amp;quot;Helvetica Neue&amp;quot;, Arial, &amp;quot;Noto Sans&amp;quot;, sans-serif, &amp;quot;Apple Color Emoji&amp;quot;, &amp;quot;Segoe UI Emoji&amp;quot;, &amp;quot;Segoe UI Symbol&amp;quot;, &amp;quot;Noto Color Emoji&amp;quot;, FontAwesome; font-size: 13px; text-align: start;&quot;&gt;RIF_PRELIM_VRSN&lt;/span&gt;" style="swimlane;swimlaneHead=0;swimlaneBody=0;fontStyle=0;connectable=0;fillColor=#0050ef;startSize=40;collapsible=0;recursiveResize=0;expand=0;labelBackgroundColor=#19141E;strokeColor=#001DBC;fontFamily=Tahoma;fontSize=12;fontColor=#ffffff;html=1;swimlaneFillColor=#19141E;" vertex="1" parent="pkK4yvhUexYtZ6XhbP0I-103">
                    <mxGeometry x="2080" width="120" height="110" as="geometry">
                        <mxRectangle width="120" height="110" as="alternateBounds"/>
                    </mxGeometry>
                </mxCell>
                <mxCell id="axYiaLlK4LFOOt4X8vs_-18" value="&lt;span style=&quot;font-family: -apple-system, BlinkMacSystemFont, &amp;quot;Segoe UI&amp;quot;, Roboto, &amp;quot;Helvetica Neue&amp;quot;, Arial, &amp;quot;Noto Sans&amp;quot;, sans-serif, &amp;quot;Apple Color Emoji&amp;quot;, &amp;quot;Segoe UI Emoji&amp;quot;, &amp;quot;Segoe UI Symbol&amp;quot;, &amp;quot;Noto Color Emoji&amp;quot;, FontAwesome; font-size: 13px; text-align: start;&quot;&gt;LTST_RUN_IND&lt;/span&gt;" style="swimlane;swimlaneHead=0;swimlaneBody=0;fontStyle=0;connectable=0;fillColor=#0050ef;startSize=40;collapsible=0;recursiveResize=0;expand=0;labelBackgroundColor=default;strokeColor=default;fontFamily=Tahoma;fontSize=12;fontColor=#ffffff;html=1;swimlaneFillColor=#19141E;" parent="axYiaLlK4LFOOt4X8vs_-3" vertex="1">
                    <mxGeometry x="1760" width="100" height="110" as="geometry">
                        <mxRectangle width="100" height="110" as="alternateBounds"/>
                    </mxGeometry>
                </mxCell>
                <mxCell id="axYiaLlK4LFOOt4X8vs_-19" value="&lt;span style=&quot;font-family: -apple-system, BlinkMacSystemFont, &amp;quot;Segoe UI&amp;quot;, Roboto, &amp;quot;Helvetica Neue&amp;quot;, Arial, &amp;quot;Noto Sans&amp;quot;, sans-serif, &amp;quot;Apple Color Emoji&amp;quot;, &amp;quot;Segoe UI Emoji&amp;quot;, &amp;quot;Segoe UI Symbol&amp;quot;, &amp;quot;Noto Color Emoji&amp;quot;, FontAwesome; font-size: 13px; text-align: start;&quot;&gt;CCB_QTR&lt;/span&gt;" style="swimlane;swimlaneHead=0;swimlaneBody=0;fontStyle=0;connectable=0;fillColor=#0050ef;startSize=40;collapsible=0;recursiveResize=0;expand=0;labelBackgroundColor=#19141E;strokeColor=default;fontFamily=Tahoma;fontSize=12;fontColor=#ffffff;html=1;swimlaneFillColor=#19141E;" parent="axYiaLlK4LFOOt4X8vs_-3" vertex="1">
                    <mxGeometry x="1860" width="100" height="110" as="geometry">
                        <mxRectangle width="100" height="110" as="alternateBounds"/>
                    </mxGeometry>
                </mxCell>
                <mxCell id="axYiaLlK4LFOOt4X8vs_-20" value="&lt;span style=&quot;font-family: -apple-system, BlinkMacSystemFont, &amp;quot;Segoe UI&amp;quot;, Roboto, &amp;quot;Helvetica Neue&amp;quot;, Arial, &amp;quot;Noto Sans&amp;quot;, sans-serif, &amp;quot;Apple Color Emoji&amp;quot;, &amp;quot;Segoe UI Emoji&amp;quot;, &amp;quot;Segoe UI Symbol&amp;quot;, &amp;quot;Noto Color Emoji&amp;quot;, FontAwesome; font-size: 13px; text-align: start;&quot;&gt;RIF_FINL_VRSN&lt;/span&gt;" style="swimlane;swimlaneHead=0;swimlaneBody=0;fontStyle=0;connectable=0;fillColor=#0050ef;startSize=40;collapsible=0;recursiveResize=0;expand=0;labelBackgroundColor=#19141E;strokeColor=default;fontFamily=Tahoma;fontSize=12;fontColor=#ffffff;html=1;swimlaneFillColor=#19141E;" parent="axYiaLlK4LFOOt4X8vs_-3" vertex="1">
                    <mxGeometry x="1960" width="120" height="110" as="geometry">
                        <mxRectangle width="120" height="110" as="alternateBounds"/>
                    </mxGeometry>
                </mxCell>
                <mxCell id="axYiaLlK4LFOOt4X8vs_-21" value="&lt;span style=&quot;font-family: -apple-system, BlinkMacSystemFont, &amp;quot;Segoe UI&amp;quot;, Roboto, &amp;quot;Helvetica Neue&amp;quot;, Arial, &amp;quot;Noto Sans&amp;quot;, sans-serif, &amp;quot;Apple Color Emoji&amp;quot;, &amp;quot;Segoe UI Emoji&amp;quot;, &amp;quot;Segoe UI Symbol&amp;quot;, &amp;quot;Noto Color Emoji&amp;quot;, FontAwesome; font-size: 13px; text-align: start;&quot;&gt;RIF_PRELIM_VRSN&lt;/span&gt;" style="swimlane;swimlaneHead=0;swimlaneBody=0;fontStyle=0;connectable=0;fillColor=#0050ef;startSize=40;collapsible=0;recursiveResize=0;expand=0;labelBackgroundColor=#19141E;strokeColor=default;fontFamily=Tahoma;fontSize=12;fontColor=#ffffff;html=1;swimlaneFillColor=#19141E;" parent="axYiaLlK4LFOOt4X8vs_-3" vertex="1">
                    <mxGeometry x="2080" width="120" height="110" as="geometry">
                        <mxRectangle width="120" height="110" as="alternateBounds"/>
                    </mxGeometry>
                </mxCell>
            </root>
        </mxGraphModel>
    </diagram>
</mxfile>